<svg xmlns="http://www.w3.org/2000/svg" width="51" height="29" viewBox="0 0 51 29">
  <path fill="#111" d="M1066.37717,528.204143 L1066.37717,516.303249 L1080.30894,516.303249 L1080.30894,528.204143 L1085.34549,528.204143 L1085.34549,500.3 L1080.30894,500.3 L1080.30894,511.672868 L1066.37717,511.672868 L1066.37717,500.3 L1061.3,500.3 L1061.3,528.204143 L1066.37717,528.204143 Z M1100.61763,528.691552 C1106.95394,528.691552 1111.3,524.954752 1111.3,519.187084 C1111.3,513.581885 1107.07579,510.413729 1102.07985,510.413729 C1099.72405,510.413729 1097.89626,511.144842 1096.47465,512.119659 L1096.67774,504.930382 L1109.79716,504.930382 L1109.79716,500.3 L1091.96613,500.3 L1091.55995,515.125345 L1095.01243,516.587571 C1096.59651,515.36905 1098.46491,514.637937 1100.65825,514.637937 C1103.98887,514.637937 1106.26344,516.546954 1106.26344,519.390171 C1106.26344,522.111535 1104.07011,524.304874 1100.65825,524.304874 C1097.85565,524.304874 1095.29675,522.883266 1093.18465,520.771162 L1090.13834,524.386109 C1092.616,526.985621 1096.06848,528.691552 1100.61763,528.691552 Z" transform="translate(-1061 -500)"/>
</svg>
