<svg xmlns="http://www.w3.org/2000/svg" width="51" height="29" viewBox="0 0 51 29">
  <path fill="#111" d="M1323.27611,515.926433 L1323.27611,504.26242 L1336.93057,504.26242 L1336.93057,515.926433 L1341.86688,515.926433 L1341.86688,488.577707 L1336.93057,488.577707 L1336.93057,499.724204 L1323.27611,499.724204 L1323.27611,488.577707 L1318.3,488.577707 L1318.3,515.926433 L1323.27611,515.926433 Z M1358.10892,516.40414 C1364.00064,516.40414 1368.3,512.502866 1368.3,507.088854 C1368.3,501.635032 1364.12006,498.450318 1359.10414,498.450318 C1356.27771,498.450318 1353.65032,499.604777 1351.97834,501.555414 C1352.29682,496.221019 1355.08344,492.478981 1358.9449,492.478981 C1361.33344,492.478981 1363.00541,493.474204 1364.7172,494.947134 L1367.14554,491.165287 C1364.95605,489.294268 1362.32866,488.1 1358.9449,488.1 C1351.81911,488.1 1346.8828,494.270382 1346.8828,502.709873 C1346.8828,510.592038 1350.30637,516.40414 1358.10892,516.40414 Z M1357.87006,512.184395 C1354.52611,512.184395 1352.81433,509.955096 1352.2172,506.332484 C1353.01338,504.023567 1355.12325,502.510828 1357.75064,502.510828 C1360.77611,502.510828 1363.20446,504.302229 1363.20446,507.287898 C1363.20446,509.79586 1361.1742,512.184395 1357.87006,512.184395 Z" transform="translate(-1318 -488)"/>
</svg>
