<svg width="40" height="40" viewBox="0 0 40 40" fill="none" xmlns="http://www.w3.org/2000/svg">
<rect width="40" height="40" rx="8" fill="#ECF0F6"/>
<path d="M12.75 14.75V16.25C12.75 17.3546 13.6454 18.25 14.75 18.25H16.25C17.3546 18.25 18.25 17.3546 18.25 16.25V14.75C18.25 13.6454 17.3546 12.75 16.25 12.75H14.75C13.6454 12.75 12.75 13.6454 12.75 14.75Z" stroke="#4D5664" stroke-width="1.3" stroke-linecap="round" stroke-linejoin="round"/>
<g clip-path="url(#clip0_540_417)">
<path d="M25.5 13C25.5 13 25.2895 13 23.8947 13C22.5 13 22 13.62 22 15.5" stroke="#4D5664" stroke-width="0.9" stroke-linecap="round" stroke-linejoin="round"/>
<path d="M25 12L26 13L25 14" stroke="#4D5664" stroke-width="0.9" stroke-linecap="round" stroke-linejoin="round"/>
<path d="M25 16.5L28 16.5" stroke="#4D5664" stroke-width="0.9" stroke-linecap="round" stroke-linejoin="round"/>
<path d="M26.5 15L26.5 18" stroke="#4D5664" stroke-width="0.9" stroke-linecap="round" stroke-linejoin="round"/>
</g>
<path d="M12.75 23.75V25.25C12.75 26.3546 13.6454 27.25 14.75 27.25H16.25C17.3546 27.25 18.25 26.3546 18.25 25.25V23.75C18.25 22.6454 17.3546 21.75 16.25 21.75H14.75C13.6454 21.75 12.75 22.6454 12.75 23.75Z" fill="white" stroke="#4D5664" stroke-width="1.3" stroke-linecap="round" stroke-linejoin="round"/>
<path d="M21.75 23.75V25.25C21.75 26.3546 22.6454 27.25 23.75 27.25H25.25C26.3546 27.25 27.25 26.3546 27.25 25.25V23.75C27.25 22.6454 26.3546 21.75 25.25 21.75H23.75C22.6454 21.75 21.75 22.6454 21.75 23.75Z" stroke="#4D5664" stroke-width="1.3" stroke-linecap="round" stroke-linejoin="round"/>
<defs>
<clipPath id="clip0_540_417">
<rect width="8" height="8" fill="white" transform="translate(21 11)"/>
</clipPath>
</defs>
</svg>
