<svg width="40" height="40" viewBox="0 0 40 40" fill="none" xmlns="http://www.w3.org/2000/svg">
  <rect width="40" height="40" rx="8" fill="#ECF0F6"/>
  <path fill-rule="evenodd" clip-rule="evenodd" d="M21.1052 10.5076L26.9128 13.3695C27.592 13.7042 28.0829 14.3287 28.2477 15.0677L29.6904 21.5357C29.853 22.2645 29.6813 23.0278 29.2223 23.6167L25.1903 28.7904C24.7166 29.3983 23.989 29.7537 23.2184 29.7537H16.7819C16.0113 29.7537 15.2837 29.3983 14.81 28.7904L10.778 23.6167C10.319 23.0278 10.1473 22.2645 10.3099 21.5357L11.7525 15.0677C11.9174 14.3287 12.4083 13.7042 13.0875 13.3695L18.8951 10.5076C19.5918 10.1642 20.4085 10.1642 21.1052 10.5076ZM20.4422 11.8531C20.1635 11.7157 19.8368 11.7157 19.5581 11.8531L13.7506 14.715C13.4789 14.8489 13.2825 15.0987 13.2166 15.3943L11.7739 21.8623C11.7089 22.1538 11.7776 22.4591 11.9611 22.6947L15.9931 27.8684C16.1826 28.1115 16.4737 28.2537 16.7819 28.2537H23.2184C23.5266 28.2537 23.8177 28.1115 24.0071 27.8684L28.0391 22.6947C28.2227 22.4591 28.2914 22.1538 28.2264 21.8623L26.7837 15.3943C26.7178 15.0987 26.5214 14.8489 26.2497 14.715L20.4422 11.8531Z" fill="#4D5664"/>
  <path d="M20.7975 15L21.9205 19.2857L25 20L22.1984 25L18.2737 23.8613L16 20.9537V16.4286L20.7975 15Z" fill="#AAB1BD" stroke="#4D5664" stroke-width="1.5" stroke-linecap="round" stroke-linejoin="round"/>
  </svg>
