<svg width="40" height="40" viewBox="0 0 40 40" fill="none" xmlns="http://www.w3.org/2000/svg">
<rect width="40" height="40" rx="8" fill="#ECF0F6"/>
<path d="M27.25 15C27.25 16.1046 23.866 17.25 20 17.25C16.134 17.25 12.75 16.1046 12.75 15C12.75 13.8954 16.134 12.75 20 12.75C23.866 12.75 27.25 13.8954 27.25 15Z" stroke="#4D5664" stroke-width="1.5" stroke-linecap="round" stroke-linejoin="round"/>
<path d="M20.25 22.25C16.384 22.25 12.75 21.1046 12.75 20" stroke="#4D5664" stroke-width="1.5" stroke-linecap="round" stroke-linejoin="round"/>
<path d="M27.25 20.25V15" stroke="#4D5664" stroke-width="1.5" stroke-linecap="round" stroke-linejoin="round"/>
<path d="M20.25 27.25C16.384 27.25 12.75 26.1046 12.75 25V15" stroke="#4D5664" stroke-width="1.5" stroke-linecap="round" stroke-linejoin="round"/>
<g clip-path="url(#clip0_503_1009)">
<path d="M22.9202 21.7359L28.3159 21.3545C28.9787 21.3001 29.149 21.3368 29.5657 21.6267L31.2882 22.7881C31.5722 22.9878 31.6668 23.0423 31.6668 23.2598V29.6291C31.6668 30.0282 31.5154 30.2643 30.9852 30.3004L24.7193 30.6635C24.3215 30.6815 24.132 30.6271 23.9236 30.3729L22.6553 28.7944C22.4278 28.5038 22.3335 28.2863 22.3335 28.0321V22.3706C22.3335 22.0443 22.485 21.772 22.9202 21.7359Z" fill="white"/>
<path fill-rule="evenodd" clip-rule="evenodd" d="M28.3159 21.3545L22.9202 21.7359C22.485 21.772 22.3335 22.0443 22.3335 22.3706V28.0321C22.3335 28.2863 22.4278 28.5038 22.6553 28.7944L23.9236 30.3729C24.132 30.6271 24.3215 30.6815 24.7193 30.6635L30.9852 30.3004C31.515 30.2643 31.6668 30.0282 31.6668 29.6291V23.2598C31.6668 23.0535 31.5817 22.9941 31.3311 22.818C31.3166 22.808 31.3022 22.7981 31.2878 22.7881L29.5657 21.6267C29.149 21.3368 28.9787 21.3001 28.3159 21.3545ZM24.861 23.1555C24.3494 23.1885 24.2334 23.196 23.9428 22.9698L23.204 22.4073C23.1289 22.3345 23.1666 22.2437 23.3558 22.2256L28.5428 21.8629C28.9784 21.8265 29.2053 21.9718 29.3756 22.0987L30.2652 22.7156C30.3033 22.734 30.3979 22.8426 30.2841 22.8426L24.9274 23.1512L24.861 23.1555ZM24.2646 29.5746V24.1676C24.2646 23.9314 24.3403 23.8225 24.5672 23.8042L30.7196 23.4595C30.9283 23.4414 31.0226 23.5684 31.0226 23.8042V29.1752C31.0226 29.4113 30.9846 29.611 30.6439 29.6291L24.7564 29.9557C24.4157 29.9738 24.2646 29.8652 24.2646 29.5746ZM30.0764 24.4575C30.1141 24.6208 30.0764 24.7842 29.9057 24.8028L29.622 24.8567V28.8488C29.3756 28.9757 29.1487 29.0482 28.9592 29.0482C28.6563 29.0482 28.5805 28.9574 28.3536 28.6855L26.498 25.8911V28.5946L27.085 28.7219C27.085 28.7219 27.085 29.0485 26.6114 29.0485L25.3057 29.121C25.2677 29.0482 25.3057 28.8668 25.438 28.8308L25.779 28.7402V25.1656L25.3057 25.1289C25.2677 24.9656 25.3623 24.7297 25.6275 24.7114L27.0284 24.6212L28.9592 27.4516V24.9475L28.4671 24.8934C28.4291 24.6933 28.5805 24.548 28.7697 24.5303L30.0764 24.4575Z" fill="#4D5664"/>
</g>
<defs>
<clipPath id="clip0_503_1009">
<rect width="10" height="10" fill="white" transform="translate(22 21)"/>
</clipPath>
</defs>
</svg>
