<svg xmlns="http://www.w3.org/2000/svg" width="51" height="56" viewBox="0 0 51 56">
  <path fill="#fff" d="M753.369231,476.348077 C764.587179,476.348077 772.6,470.338462 772.6,461.524359 C772.6,455.434615 768.833974,450.226282 762.423718,447.501923 C767.23141,445.178205 770.035897,440.530769 770.035897,435.162179 C770.035897,427.149359 762.744231,421.3 752.247436,421.3 L722.6,421.3 L722.6,476.348077 L753.369231,476.348077 Z M748.48141,442.694231 L738.064744,442.694231 L738.064744,434.360897 L748.48141,434.360897 C751.686538,434.360897 754.010256,436.123718 754.010256,438.527564 C754.010256,440.93141 751.686538,442.694231 748.48141,442.694231 Z M750.805128,463.287179 L738.064744,463.287179 L738.064744,454.473077 L750.805128,454.473077 C754.170513,454.473077 756.574359,456.316026 756.574359,458.880128 C756.574359,461.444231 754.170513,463.287179 750.805128,463.287179 Z" transform="translate(-722 -421)"/>
</svg>
