<svg xmlns="http://www.w3.org/2000/svg" width="51" height="29" viewBox="0 0 51 29">
  <path fill="#fff" d="M764.418755,455.724079 L764.418755,443.725717 L778.464619,443.725717 L778.464619,455.724079 L783.542424,455.724079 L783.542424,427.5914 L778.464619,427.5914 L778.464619,439.057412 L764.418755,439.057412 L764.418755,427.5914 L759.3,427.5914 L759.3,455.724079 L764.418755,455.724079 Z M809.3,455.724079 L809.3,451.055774 L796.564537,451.055774 L802.461343,446.305569 C807.293448,442.579115 809.01335,439.589762 809.01335,435.863309 C809.01335,430.662654 804.754545,427.1 799.18534,427.1 C794.639885,427.1 791.241032,429.106552 788.579279,432.587305 L791.896233,435.658559 C793.943735,433.201556 796.073137,431.686405 799.02154,431.686405 C801.560442,431.686405 803.812695,433.324406 803.812695,435.986159 C803.812695,438.279361 802.543243,440.408763 798.98059,443.275266 L788.620229,451.547174 L788.620229,455.724079 L809.3,455.724079 Z" transform="translate(-759 -427)"/>
</svg>
