<svg xmlns="http://www.w3.org/2000/svg" width="51" height="30" viewBox="0 0 51 30">
  <path fill="#fff" d="M595.385435,548.537754 L595.385435,536.617494 L609.33987,536.617494 L609.33987,548.537754 L614.384622,548.537754 L614.384622,520.588202 L609.33987,520.588202 L609.33987,531.979577 L595.385435,531.979577 L595.385435,520.588202 L590.3,520.588202 L590.3,548.537754 L595.385435,548.537754 Z M629.885028,549.025956 C636.150285,549.025956 640.3,545.608544 640.3,540.807893 C640.3,537.024329 637.370789,534.868104 634.400895,534.176485 C637.370789,533.281448 639.689748,531.08454 639.689748,527.707811 C639.689748,523.273312 635.74345,520.1 629.762978,520.1 C625.003011,520.1 621.748332,522.215541 619.51074,525.022701 L622.521318,528.114646 C624.433442,525.999105 626.548983,524.65655 629.356143,524.65655 C632.366721,524.65655 634.522945,526.243206 634.522945,528.521481 C634.522945,530.96249 632.366721,532.305045 629.071359,532.264361 L625.938731,532.264361 L625.938731,536.658177 L629.071359,536.617494 C633.05834,536.617494 635.092514,537.919365 635.092514,540.401058 C635.092514,542.842067 633.05834,544.51009 629.681611,544.51009 C626.671033,544.51009 623.985924,543.167535 622.0738,540.970627 L618.981855,544.306672 C621.26013,547.032465 624.962327,549.025956 629.885028,549.025956 Z" transform="translate(-590 -520)"/>
</svg>
