<svg xmlns="http://www.w3.org/2000/svg" width="51" height="28" viewBox="0 0 51 28">
  <path fill="#fff" d="M852.190454,537.177934 L852.190454,525.71471 L865.609859,525.71471 L865.609859,537.177934 L870.461189,537.177934 L870.461189,510.3 L865.609859,510.3 L865.609859,521.254617 L852.190454,521.254617 L852.190454,510.3 L847.3,510.3 L847.3,537.177934 L852.190454,537.177934 Z M893.583255,537.177934 L893.583255,531.348513 L897.3,531.348513 L897.3,527.162285 L893.583255,527.162285 L893.583255,510.3 L887.753834,510.3 L874.999531,527.553521 L875.469014,531.348513 L888.731925,531.348513 L888.731925,537.177934 L893.583255,537.177934 Z M888.731925,527.162285 L880.202973,527.162285 L888.731925,515.620814 L888.731925,527.162285 Z" transform="translate(-847 -510)"/>
</svg>
