<svg xmlns="http://www.w3.org/2000/svg" width="65" height="72" viewBox="0 0 65 72">
  <g fill="#fff" transform="translate(.99)">
    <path d="M27.81,71.1 C45.01,71.1 57.71,61.4 57.71,47.1 C57.71,37.7 51.51,33.4 36.81,29.9 C27.11,27.5 23.51,25.6 23.51,22 C23.51,15.8 29.31,10.7 38.31,10.7 C43.71,10.7 50.91,13.5 55.71,18.5 L63.71,10 C57.81,3.8 48.41,-5.68434189e-14 39.51,-5.68434189e-14 C22.41,-5.68434189e-14 10.71,10.3 10.71,24.1 C10.71,33.9 18.21,37.6 31.71,40.9 C41.61,43.4 45.01,45.3 45.01,48.9 C45.01,55.3 38.71,60.4 28.71,60.4 C21.81,60.4 13.81,57.1 8.81,51.5 L0.31,59.6 C6.41,66.5 17.11,71.1 27.81,71.1 Z"/>
    <polygon points="0 45 63.42 45 63.42 43 0 43"/>
  </g>
</svg>
