<svg width="40" height="40" viewBox="0 0 40 40" fill="none" xmlns="http://www.w3.org/2000/svg">
<rect width="40" height="40" rx="8" fill="#29283A"/>
<path d="M15.1391 27.351H16.1318V25.8107H15.9949C15.122 25.8107 14.6256 25.4341 14.6256 24.2532V22.148C14.6256 21.0012 14.1463 20.2653 12.8455 19.9914C14.1463 19.7176 14.6256 18.9303 14.6256 17.7835V15.7468C14.6256 14.5658 15.122 14.1893 15.9778 14.1893H16.1318V12.6489H15.1391C13.6328 12.6489 12.5887 13.5903 12.5887 15.4045V17.5782C12.5887 18.5195 12.1437 18.9303 11.0996 19.1357V20.8472C12.1437 21.0526 12.5887 21.4805 12.5887 22.4047V24.5784C12.5887 26.4268 13.6328 27.351 15.1391 27.351Z" fill="#119484"/>
<path d="M24.8601 12.6489H23.8674V14.1893H24.0043C24.8773 14.1893 25.3736 14.5658 25.3736 15.7468V17.852C25.3736 18.9987 25.8529 19.7347 27.1537 20.0085C25.8529 20.2824 25.3736 21.0697 25.3736 22.2164V24.2532C25.3736 25.4341 24.8773 25.8107 24.0214 25.8107H23.8674V27.351H24.8601C26.3664 27.351 27.4105 26.4097 27.4105 24.5955V22.4218C27.4105 21.4805 27.8555 21.0697 28.8996 20.8643V19.1528C27.8555 18.9474 27.4105 18.5195 27.4105 17.5953V15.4216C27.4105 13.5732 26.3664 12.6489 24.8601 12.6489Z" fill="#119484"/>
</svg>
