<svg width="40" height="40" viewBox="0 0 40 40" fill="none" xmlns="http://www.w3.org/2000/svg">
<rect width="40" height="40" rx="8" fill="#ECF0F6"/>
<g clip-path="url(#clip0_573_508)">
<path d="M28.3436 19.4996C27.898 18.7392 27.2624 18.1076 26.4988 17.6672C25.916 17.3284 25.3132 17.1132 24.6328 17.0204V14.5836C24.9628 14.4468 25.2444 14.2144 25.4408 13.916C25.6372 13.6176 25.7396 13.2672 25.7348 12.91C25.736 12.6688 25.6896 12.4296 25.598 12.2064C25.5064 11.9832 25.372 11.7804 25.2016 11.6092C25.0316 11.4384 24.8292 11.3024 24.6064 11.21C24.3836 11.1176 24.1448 11.0696 23.9036 11.0696C23.4152 11.0696 22.9464 11.2632 22.6004 11.608C22.2544 11.9528 22.0592 12.4208 22.0576 12.9096C22.0576 13.6572 22.4544 14.2952 23.1364 14.5836V17.0064C22.5716 17.088 22.0232 17.2604 21.5128 17.516L14.99 12.5772C15.0356 12.4048 15.0756 12.2264 15.0756 12.0384C15.0752 10.9124 14.1628 10 13.0368 10C11.9108 10 11 10.9124 11 12.0384C11 13.1644 11.9124 14.0768 13.0384 14.0768C13.4228 14.0768 13.7784 13.964 14.0852 13.7792L14.5124 14.1028L20.3636 18.3216C20.054 18.6056 19.7656 18.9288 19.5352 19.292C19.0684 20.032 18.7828 20.8452 18.7828 21.7332V21.9164C18.7848 22.5184 18.8932 23.1156 19.1032 23.6804C19.2804 24.1624 19.5396 24.602 19.8616 24.9988L17.9176 26.9472C17.3424 26.7336 16.6972 26.8756 16.262 27.3104C15.966 27.6048 15.7996 28.006 15.8012 28.4244C15.8028 28.8424 15.966 29.2408 16.2636 29.5384C16.5612 29.836 16.9592 30.0008 17.3776 30.0008C17.796 30.0008 18.1968 29.836 18.4916 29.5384C18.786 29.2408 18.954 28.8428 18.9524 28.4244C18.9524 28.264 18.9276 28.1044 18.8792 27.9516L20.8872 25.9436C21.162 26.1344 21.4592 26.2944 21.7796 26.432C22.438 26.7208 23.1492 26.8704 23.8684 26.8716H24.0056C24.848 26.8716 25.6428 26.6732 26.3888 26.2688C27.1556 25.8576 27.8 25.2508 28.2564 24.5096C28.7248 23.762 28.9812 22.9336 28.9812 22.0224V21.9768C28.9812 21.0812 28.7736 20.2556 28.3404 19.4988L28.3436 19.4996ZM25.8916 23.7136C25.3468 24.3192 24.72 24.6932 24.012 24.6932H23.8776C23.4732 24.6932 23.0764 24.5816 22.6904 24.3772C22.2672 24.1572 21.9084 23.8304 21.6496 23.4296C21.3688 23.0328 21.2164 22.5996 21.2164 22.1404V22.0032C21.2164 21.5516 21.3032 21.1228 21.5216 20.7184C21.7552 20.2608 22.0708 19.9328 22.4904 19.6596C22.91 19.3864 23.342 19.2552 23.8332 19.2552H23.8792C24.3216 19.2552 24.7444 19.3424 25.1408 19.5452C25.5428 19.7564 25.884 20.0668 26.1324 20.4468C26.3784 20.828 26.5308 21.262 26.5764 21.7132L26.5872 21.9984C26.5872 22.6192 26.3492 23.1944 25.8748 23.7164L25.8916 23.7136Z" fill="#F8761F"/>
</g>
<defs>
<clipPath id="clip0_573_508">
<rect width="17.9812" height="20" fill="white" transform="translate(11 10)"/>
</clipPath>
</defs>
</svg>
