<svg width="40" height="40" viewBox="0 0 40 40" fill="none" xmlns="http://www.w3.org/2000/svg">
<rect width="40" height="40" rx="8" fill="#29283A"/>
<path fill-rule="evenodd" clip-rule="evenodd" d="M18.042 12.5488H27.9582C29.615 12.5488 30.9582 13.892 30.9582 15.5488V20.6902C30.9582 22.347 29.615 23.6902 27.9582 23.6902H27.2447V25.9165C27.2447 26.7882 26.207 27.2426 25.5664 26.6513L22.3585 23.6902H18.042C16.3851 23.6902 15.042 22.347 15.042 20.6902V15.5488C15.042 13.892 16.3851 12.5488 18.042 12.5488Z" fill="#29283A"/>
<path d="M27.2447 23.6902V23.0402H26.5947V23.6902H27.2447ZM25.5664 26.6513L26.0073 26.1737L26.0073 26.1737L25.5664 26.6513ZM22.3585 23.6902L22.7994 23.2125L22.6127 23.0402H22.3585V23.6902ZM27.9582 11.8988H18.042V13.1988H27.9582V11.8988ZM31.6082 15.5488C31.6082 13.533 29.974 11.8988 27.9582 11.8988V13.1988C29.2561 13.1988 30.3082 14.251 30.3082 15.5488H31.6082ZM31.6082 20.6902V15.5488H30.3082V20.6902H31.6082ZM27.9582 24.3402C29.974 24.3402 31.6082 22.706 31.6082 20.6902H30.3082C30.3082 21.988 29.2561 23.0402 27.9582 23.0402V24.3402ZM27.2447 24.3402H27.9582V23.0402H27.2447V24.3402ZM26.5947 23.6902V25.9165H27.8947V23.6902H26.5947ZM26.5947 25.9165C26.5947 26.2216 26.2315 26.3806 26.0073 26.1737L25.1255 27.1289C26.1825 28.1045 27.8947 27.3549 27.8947 25.9165H26.5947ZM26.0073 26.1737L22.7994 23.2125L21.9176 24.1678L25.1255 27.1289L26.0073 26.1737ZM18.042 24.3402H22.3585V23.0402H18.042V24.3402ZM14.392 20.6902C14.392 22.706 16.0262 24.3402 18.042 24.3402V23.0402C16.7441 23.0402 15.692 21.988 15.692 20.6902H14.392ZM14.392 15.5488V20.6902H15.692V15.5488H14.392ZM18.042 11.8988C16.0262 11.8988 14.392 13.533 14.392 15.5488H15.692C15.692 14.251 16.7441 13.1988 18.042 13.1988V11.8988Z" fill="#9B9AAC"/>
<path fill-rule="evenodd" clip-rule="evenodd" d="M19 18.123H11.042C9.93742 18.123 9.04199 19.0185 9.04199 20.123V24.4937C9.04199 25.5982 9.93742 26.4937 11.042 26.4937H11.8319V27.5988C11.8319 28.4706 12.8696 28.9249 13.5101 28.3336L15.1343 26.8344C15.2451 26.7321 15.3256 26.6161 15.3786 26.4937H19C20.1046 26.4937 21 25.5982 21 24.4937V20.123C21 19.0185 20.1046 18.123 19 18.123Z" fill="#1B1A28"/>
<path d="M11.8319 26.4937V25.8437H12.4819V26.4937H11.8319ZM13.5101 28.3336L13.951 28.8113L13.951 28.8113L13.5101 28.3336ZM15.1343 26.8344L14.6934 26.3568L14.6934 26.3568L15.1343 26.8344ZM15.3786 26.4937L14.7821 26.2354L14.9517 25.8437H15.3786V26.4937ZM11.042 17.473H19V18.773H11.042V17.473ZM8.39199 20.123C8.39199 18.6595 9.57844 17.473 11.042 17.473V18.773C10.2964 18.773 9.69199 19.3775 9.69199 20.123H8.39199ZM8.39199 24.4937V20.123H9.69199V24.4937H8.39199ZM11.042 27.1437C9.57844 27.1437 8.39199 25.9572 8.39199 24.4937H9.69199C9.69199 25.2392 10.2964 25.8437 11.042 25.8437V27.1437ZM11.8319 27.1437H11.042V25.8437H11.8319V27.1437ZM12.4819 26.4937V27.5988H11.1819V26.4937H12.4819ZM12.4819 27.5988C12.4819 27.9039 12.8451 28.063 13.0693 27.856L13.951 28.8113C12.8941 29.7869 11.1819 29.0372 11.1819 27.5988H12.4819ZM13.0693 27.856L14.6934 26.3568L15.5752 27.312L13.951 28.8113L13.0693 27.856ZM14.6934 26.3568C14.7384 26.3153 14.7655 26.2737 14.7821 26.2354L15.9751 26.7519C15.8857 26.9584 15.7519 27.1489 15.5752 27.312L14.6934 26.3568ZM19 27.1437H15.3786V25.8437H19V27.1437ZM21.65 24.4937C21.65 25.9572 20.4636 27.1437 19 27.1437V25.8437C19.7456 25.8437 20.35 25.2392 20.35 24.4937H21.65ZM21.65 20.123V24.4937H20.35V20.123H21.65ZM19 17.473C20.4636 17.473 21.65 18.6595 21.65 20.123H20.35C20.35 19.3775 19.7456 18.773 19 18.773V17.473Z" fill="#9B9AAC"/>
</svg>
