<svg width="40" height="40" viewBox="0 0 40 40" fill="none" xmlns="http://www.w3.org/2000/svg">
<rect width="40" height="40" rx="8" fill="#29283A"/>
<g clip-path="url(#clip0_573_532)">
<path d="M11.8404 11.4718L22.6319 10.7089C23.9574 10.6001 24.2981 10.6735 25.1315 11.2534L28.5763 13.5761C29.1445 13.9756 29.3337 14.0845 29.3337 14.5194V27.258C29.3337 28.0563 29.0307 28.5286 27.9704 28.6007L15.4386 29.3269C14.6429 29.3629 14.2639 29.2541 13.8472 28.7457L11.3106 25.5886C10.8555 25.0074 10.667 24.5725 10.667 24.0642V12.7411C10.667 12.0884 10.9699 11.544 11.8404 11.4718Z" fill="#9B9AAC"/>
<path fill-rule="evenodd" clip-rule="evenodd" d="M22.6319 10.7089L11.8404 11.4718C10.9699 11.544 10.667 12.0884 10.667 12.7411V24.0642C10.667 24.5725 10.8555 25.0074 11.3106 25.5886L13.8472 28.7457C14.2639 29.2541 14.6429 29.3629 15.4386 29.3269L27.9704 28.6007C29.0301 28.5286 29.3337 28.0563 29.3337 27.258V14.5194C29.3337 14.1069 29.1633 13.988 28.6621 13.6358C28.6333 13.616 28.6045 13.596 28.5757 13.5761L25.1315 11.2534C24.2981 10.6735 23.9574 10.6001 22.6319 10.7089ZM15.7221 14.3109C14.6988 14.3769 14.4668 14.3918 13.8856 13.9395L12.4079 12.8145C12.2578 12.6689 12.3332 12.4872 12.7115 12.4511L23.0856 11.7256C23.9568 11.6528 24.4105 11.9434 24.7512 12.1973L26.5305 13.4311C26.6065 13.4678 26.7957 13.685 26.5682 13.685L15.8547 14.3022L15.7221 14.3109ZM14.5292 27.1491V16.335C14.5292 15.8627 14.6806 15.645 15.1344 15.6083L27.4393 14.9188C27.8567 14.8828 28.0452 15.1366 28.0452 15.6083V26.3502C28.0452 26.8224 27.9691 27.2219 27.2878 27.258L15.5128 27.9113C14.8315 27.9474 14.5292 27.7303 14.5292 27.1491ZM26.1528 16.9149C26.2282 17.2416 26.1528 17.5682 25.8115 17.6056L25.2439 17.7132V25.6975C24.7512 25.9513 24.2974 26.0963 23.9184 26.0963C23.3125 26.0963 23.1611 25.9146 22.7073 25.3708L18.9959 19.7821V25.1891L20.17 25.4436C20.17 25.4436 20.17 26.0969 19.2228 26.0969L16.6114 26.2419C16.5353 26.0963 16.6114 25.7336 16.876 25.6614L17.5579 25.4803V18.3311L16.6114 18.2577C16.5353 17.931 16.7245 17.4593 17.255 17.4226L20.0569 17.2422L23.9184 22.9031V17.8949L22.9342 17.7866C22.8581 17.3866 23.1611 17.096 23.5394 17.0605L26.1528 16.9149Z" fill="#161F2C"/>
</g>
<defs>
<clipPath id="clip0_573_532">
<rect width="20" height="20" fill="white" transform="translate(10 10)"/>
</clipPath>
</defs>
</svg>
