<svg width="40" height="40" viewBox="0 0 40 40" fill="none" xmlns="http://www.w3.org/2000/svg">
<rect width="40" height="40" rx="8" fill="#29283A"/>
<g clip-path="url(#clip0_573_550)">
<path d="M22.5454 10L27.5454 15L25.0454 15.4545L22.5454 15L22.0908 12.5L22.5454 10Z" fill="#188038"/>
<path d="M22.5455 15V10H14.3636C13.6102 10 13 10.6102 13 11.3636V28.6364C13 29.3898 13.6102 30 14.3636 30H26.1818C26.9352 30 27.5455 29.3898 27.5455 28.6364V15H22.5455Z" fill="#34A853"/>
<path d="M15.7271 17.7273V24.3182H24.818V17.7273H15.7271ZM19.7043 23.1818H16.8634V21.5909H19.7043V23.1818ZM19.7043 20.4546H16.8634V18.8637H19.7043V20.4546ZM23.6816 23.1818H20.8407V21.5909H23.6816V23.1818ZM23.6816 20.4546H20.8407V18.8637H23.6816V20.4546Z" fill="white"/>
</g>
<defs>
<clipPath id="clip0_573_550">
<rect width="14.5455" height="20" fill="white" transform="translate(13 10)"/>
</clipPath>
</defs>
</svg>
