<svg width="40" height="40" viewBox="0 0 40 40" fill="none" xmlns="http://www.w3.org/2000/svg">
<rect width="40" height="40" rx="8" fill="#ECF0F6"/>
<path d="M27.1388 28.9962L29.5713 19.9179C29.8272 18.9629 29.2605 17.9813 28.3055 17.7254L23.9825 16.567L17.953 20.0482L16.3313 26.1004C16.0754 27.0554 16.6422 28.037 17.5972 28.2929L24.9463 30.2621C25.9013 30.518 26.8829 29.9512 27.1388 28.9962Z" fill="white"/>
<path d="M23.9825 16.567L28.3055 17.7254C29.2605 17.9813 29.8272 18.9629 29.5713 19.9179L27.1388 28.9962C26.8829 29.9512 25.9013 30.518 24.9463 30.2621L17.5972 28.2929C16.6422 28.037 16.0754 27.0554 16.3313 26.1004L17.953 20.0482M23.9825 16.567L23.1716 19.5931C22.9157 20.5481 21.9341 21.1149 20.9791 20.859L17.953 20.0482M23.9825 16.567L17.953 20.0482" stroke="#4D5664" stroke-width="1.3" stroke-linecap="round" stroke-linejoin="round"/>
<path d="M12.1243 24.9329L10.2722 13.5188C10.0774 12.3181 10.8928 11.1868 12.0935 10.992L17.5288 10.11L24.4777 15.1187L25.7124 22.7281C25.9072 23.9288 25.0918 25.0601 23.8911 25.2549L14.6511 26.7542C13.4504 26.949 12.3191 26.1336 12.1243 24.9329Z" fill="#ECF0F6"/>
<path d="M17.5288 10.11L12.0935 10.992C10.8928 11.1868 10.0774 12.3181 10.2722 13.5188L12.1243 24.9329C12.3191 26.1336 13.4504 26.949 14.6511 26.7542L23.8911 25.2549C25.0918 25.0601 25.9072 23.9288 25.7124 22.7281L24.4777 15.1187M17.5288 10.11L18.1462 13.9147C18.341 15.1154 19.4723 15.9309 20.673 15.736L24.4777 15.1187M17.5288 10.11L24.4777 15.1187" stroke="#4D5664" stroke-width="1.3" stroke-linecap="round" stroke-linejoin="round"/>
<path d="M15.1211 22.7729L22.1869 21.6264" stroke="#4D5664" stroke-width="1.3" stroke-linecap="round" stroke-linejoin="round"/>
<path d="M14.5918 19.512L17.3094 19.071" stroke="#4D5664" stroke-width="1.3" stroke-linecap="round" stroke-linejoin="round"/>
</svg>
