<svg width="40" height="40" viewBox="0 0 40 40" fill="none" xmlns="http://www.w3.org/2000/svg">
<rect width="40" height="40" rx="8" fill="#29283A"/>
<path d="M21.2885 12.2291C20.4646 11.2332 19.7551 10.2217 19.6101 10.0117C19.5949 9.99611 19.572 9.99611 19.5567 10.0117C19.4118 10.2217 18.7023 11.2332 17.8783 12.2291C10.8061 21.418 18.9922 27.6191 18.9922 27.6191L19.0608 27.6658C19.1219 28.6228 19.2745 30 19.2745 30H19.5796H19.8848C19.8848 30 20.0374 28.6306 20.0984 27.6658L20.1671 27.6114C20.1747 27.6114 28.3608 21.418 21.2885 12.2291ZM19.5796 27.4791C19.5796 27.4791 19.2134 27.1601 19.1142 26.9967V26.9812L19.5567 16.9753C19.5567 16.9442 19.6025 16.9442 19.6025 16.9753L20.045 26.9812V26.9967C19.9458 27.1601 19.5796 27.4791 19.5796 27.4791Z" fill="#2B664C"/>
</svg>
