<svg width="40" height="40" viewBox="0 0 40 40" fill="none" xmlns="http://www.w3.org/2000/svg">
<rect width="40" height="40" rx="8" fill="#ECF0F6"/>
<g clip-path="url(#clip0_573_496)">
<path d="M11.512 26.3151L12.394 27.8385C12.5773 28.1593 12.8408 28.4113 13.1501 28.5946L16.3001 23.1421H10C10 23.4972 10.0916 23.8523 10.2749 24.173L11.512 26.3151Z" fill="#0066DA"/>
<path d="M20 16.7274L16.8499 11.2749C16.5407 11.4582 16.2772 11.7102 16.0939 12.0309L10.2749 22.1111C10.095 22.4249 10.0002 22.7803 10 23.142H16.3001L20 16.7274Z" fill="#00AC47"/>
<path d="M26.8497 28.5946C27.159 28.4113 27.4225 28.1593 27.6057 27.8385L27.9723 27.2085L29.7249 24.173C29.9082 23.8523 29.9998 23.4972 29.9998 23.1421H23.6992L25.0399 25.7767L26.8497 28.5946Z" fill="#EA4335"/>
<path d="M20.0002 16.7274L23.1502 11.2749C22.8409 11.0916 22.4858 11 22.1193 11H17.881C17.5145 11 17.1594 11.1031 16.8501 11.2749L20.0002 16.7274Z" fill="#00832D"/>
<path d="M23.6997 23.1421H16.3L13.1499 28.5946C13.4592 28.7778 13.8143 28.8695 14.1808 28.8695H25.8189C26.1854 28.8695 26.5405 28.7664 26.8498 28.5946L23.6997 23.1421Z" fill="#2684FC"/>
<path d="M26.8156 17.071L23.9061 12.0309C23.7228 11.7102 23.4593 11.4582 23.1501 11.2749L20 16.7274L23.6999 23.142H29.9885C29.9885 22.7869 29.8969 22.4318 29.7136 22.1111L26.8156 17.071Z" fill="#FFBA00"/>
</g>
<defs>
<clipPath id="clip0_573_496">
<rect width="20" height="17.8694" fill="white" transform="translate(10 11)"/>
</clipPath>
</defs>
</svg>
