<svg width="305" height="50" viewBox="0 0 305 50" fill="none" xmlns="http://www.w3.org/2000/svg">
  <rect width="305" height="50" rx="12" fill="#ECF0F6" opacity="0.8"/>
  <path d="M18.1 33V15.5H25.175C28.525 15.5 31.375 16.825 31.375 20.6C31.375 24.425 28.525 25.7 25.175 25.7H20.875V33H18.1ZM20.875 23.375H25.175C27.55 23.375 28.525 22.3 28.525 20.6C28.525 18.9 27.575 17.825 25.175 17.825H20.875V23.375ZM38.4553 33.4C34.8803 33.4 32.3803 30.9 32.3803 26.95C32.3803 23.075 34.9053 20.475 38.4553 20.475C42.0303 20.475 44.5553 23.075 44.5553 26.95C44.5553 30.9 42.0303 33.4 38.4553 33.4ZM35.0303 26.95C35.0303 29.65 36.3553 31.375 38.4553 31.375C40.5553 31.375 41.9053 29.65 41.9053 26.95C41.9053 24.2 40.5303 22.525 38.4553 22.525C36.4053 22.525 35.0303 24.2 35.0303 26.95ZM49.5189 33L45.6939 20.875H48.4189L50.8439 29.475C50.9439 29.85 51.0439 30.25 51.1189 30.65C51.2189 30.225 51.3189 29.825 51.4189 29.475L53.7439 20.875H57.1189L59.5189 29.475C59.6189 29.825 59.7189 30.2 59.7939 30.625C59.8939 30.2 59.9689 29.825 60.0939 29.45L62.4939 20.875H65.0439L61.2939 33H58.1689L55.7189 24.275C55.6439 23.95 55.5439 23.55 55.4439 23.075C55.3689 23.55 55.2689 23.925 55.1439 24.275L52.7189 33H49.5189ZM72.2432 33.4C68.6182 33.4 66.2182 31.1 66.2182 26.9C66.2182 23.125 68.7182 20.475 72.1432 20.475C75.7932 20.475 77.8682 23.025 77.8682 26.95V27.5H68.8432C68.8932 29.85 70.2932 31.375 72.2682 31.375C73.6682 31.375 74.8932 30.7 75.1432 29.15H77.7682C77.5182 31.45 75.6182 33.4 72.2432 33.4ZM68.8682 25.65H75.1432C75.1182 23.75 73.9932 22.45 72.1182 22.45C70.2932 22.45 69.0432 23.825 68.8682 25.65ZM80.5662 33V20.875H83.1662V21.6C83.1662 22.075 83.1662 22.525 83.1162 22.975C83.7412 21.6 84.9662 20.475 86.7912 20.475C86.9912 20.475 87.1912 20.475 87.3912 20.525V23.05C87.2162 23.025 86.9662 22.975 86.6162 22.975C84.5162 22.975 83.1662 24.1 83.1662 26.775V33H80.5662ZM94.5088 33.4C90.8838 33.4 88.4838 31.1 88.4838 26.9C88.4838 23.125 90.9838 20.475 94.4088 20.475C98.0588 20.475 100.134 23.025 100.134 26.95V27.5H91.1088C91.1588 29.85 92.5588 31.375 94.5338 31.375C95.9338 31.375 97.1588 30.7 97.4088 29.15H100.034C99.7838 31.45 97.8838 33.4 94.5088 33.4ZM91.1338 25.65H97.4088C97.3838 23.75 96.2588 22.45 94.3838 22.45C92.5588 22.45 91.3088 23.825 91.1338 25.65ZM107.682 33.4C104.482 33.4 102.107 31.15 102.107 26.95C102.107 22.95 104.582 20.475 107.732 20.475C109.682 20.475 110.932 21.5 111.557 22.55C111.507 22.175 111.507 21.825 111.507 21.475V15.5H114.107V33H111.507V32.4C111.507 32 111.507 31.675 111.557 31.325C110.982 32.325 109.707 33.4 107.682 33.4ZM104.782 26.95C104.782 29.625 106.207 31.375 108.232 31.375C110.207 31.375 111.657 29.6 111.657 26.925C111.657 24.25 110.232 22.525 108.232 22.525C106.232 22.525 104.782 24.325 104.782 26.95ZM129.571 33.4C127.721 33.4 126.346 32.525 125.646 31.325C125.696 31.725 125.696 32.05 125.696 32.425V33H123.096V15.5H125.696V21.475C125.696 21.85 125.671 22.2 125.646 22.55C126.421 21.375 127.721 20.475 129.571 20.475C132.796 20.475 135.121 23.075 135.121 26.95C135.121 30.9 132.846 33.4 129.571 33.4ZM125.546 26.95C125.546 29.575 126.971 31.375 128.996 31.375C131.046 31.375 132.446 29.575 132.446 26.95C132.446 24.35 131.046 22.525 128.996 22.525C126.971 22.525 125.546 24.25 125.546 26.95ZM138.725 38.15L140.825 32.725L136.025 20.875H138.925L141.725 28.65C141.875 29.1 142.05 29.575 142.2 30.125C142.35 29.575 142.5 29.1 142.65 28.65L145.225 20.875H147.95L141.5 38.15H138.725Z" fill="#161F2C"/>
  <path d="M161.714 17.937H164.858C165.066 17.9369 165.266 17.854 165.413 17.7064C165.56 17.5588 165.643 17.3587 165.643 17.1499V14.787C165.643 14.5783 165.726 14.3781 165.873 14.2305C166.02 14.0829 166.22 14 166.428 14H168.785C168.994 14 169.194 14.0829 169.341 14.2305C169.488 14.3781 169.571 14.5783 169.571 14.787V17.1499C169.571 17.3587 169.488 17.5588 169.341 17.7064C169.194 17.854 168.994 17.9369 168.785 17.937H166.428C166.22 17.937 166.02 18.0199 165.873 18.1675C165.726 18.3151 165.643 18.5152 165.643 18.724V21.8739C165.643 22.0827 165.56 22.2828 165.413 22.4304C165.266 22.578 165.066 22.661 164.858 22.661H161.714C161.506 22.661 161.306 22.5781 161.159 22.4305C161.011 22.2829 160.929 22.0827 160.929 21.874V18.724C160.929 18.5152 161.011 18.3151 161.159 18.1675C161.306 18.0199 161.506 17.937 161.714 17.937Z" fill="#161F2C"/>
  <path d="M160.929 31.321V28.171C160.929 27.9623 160.846 27.7621 160.699 27.6145C160.552 27.467 160.352 27.384 160.143 27.384H157.785C157.577 27.384 157.377 27.3011 157.23 27.1535C157.083 27.0059 157 26.8057 157 26.597V24.235C157 24.0263 157.083 23.8261 157.23 23.6785C157.377 23.5309 157.577 23.448 157.785 23.448H160.143C160.352 23.448 160.552 23.5309 160.699 23.6785C160.846 23.8261 160.929 24.0263 160.929 24.235V26.597C160.929 26.8057 161.012 27.0059 161.159 27.1535C161.306 27.3011 161.506 27.384 161.714 27.384H164.858C165.066 27.384 165.266 27.467 165.413 27.6145C165.56 27.7621 165.643 27.9623 165.643 28.171V31.321C165.643 31.5298 165.56 31.7298 165.413 31.8775C165.266 32.0251 165.066 32.1081 164.858 32.1081H161.714C161.506 32.1081 161.306 32.0251 161.159 31.8775C161.012 31.7298 160.929 31.5298 160.929 31.321Z" fill="#161F2C"/>
  <path d="M174.286 32.1076H171.142C170.934 32.1076 170.734 32.1906 170.587 32.3382C170.439 32.4857 170.357 32.6858 170.357 32.8946V35.2575C170.357 35.4663 170.274 35.6665 170.127 35.8141C169.979 35.9616 169.78 36.0446 169.571 36.0446H167.214C167.006 36.0446 166.806 35.9616 166.659 35.8141C166.511 35.6665 166.429 35.4663 166.429 35.2575V32.8946C166.429 32.6858 166.511 32.4857 166.659 32.3382C166.806 32.1906 167.006 32.1076 167.214 32.1076H169.571C169.78 32.1075 169.979 32.0246 170.127 31.877C170.274 31.7294 170.357 31.5293 170.357 31.3205V28.1706C170.357 27.9619 170.439 27.7617 170.587 27.6141C170.734 27.4665 170.934 27.3836 171.142 27.3835H174.286C174.494 27.3836 174.694 27.4665 174.841 27.6141C174.988 27.7617 175.071 27.9618 175.071 28.1705V31.3205C175.071 31.5292 174.988 31.7294 174.841 31.877C174.694 32.0246 174.494 32.1075 174.286 32.1076Z" fill="#161F2C"/>
  <path d="M175.071 18.7236V21.8735C175.071 22.0822 175.154 22.2824 175.301 22.43C175.448 22.5776 175.648 22.6605 175.856 22.6605H178.215C178.423 22.6605 178.623 22.7434 178.77 22.891C178.917 23.0386 179 23.2388 179 23.4475V25.8095C179 26.0182 178.917 26.2184 178.77 26.366C178.623 26.5136 178.423 26.5965 178.215 26.5965H175.856C175.648 26.5965 175.448 26.5136 175.301 26.366C175.154 26.2184 175.071 26.0182 175.071 25.8095V23.4475C175.071 23.2388 174.988 23.0386 174.841 22.891C174.694 22.7434 174.494 22.6605 174.286 22.6605H171.142C170.934 22.6605 170.734 22.5776 170.587 22.43C170.439 22.2824 170.357 22.0822 170.357 21.8735V18.7236C170.357 18.5148 170.439 18.3147 170.587 18.1671C170.734 18.0195 170.934 17.9365 171.142 17.9365H174.286C174.494 17.9365 174.694 18.0195 174.841 18.1671C174.988 18.3147 175.071 18.5148 175.071 18.7236Z" fill="#161F2C"/>
  <mask id="mask0_1498_2425" style="mask-type:luminance" maskUnits="userSpaceOnUse" x="185" y="14" width="104" height="24">
  <path d="M288.148 14H185.903V38H288.148V14Z" fill="white"/>
  </mask>
  <g mask="url(#mask0_1498_2425)">
  <path d="M185.903 33.703H194.27C199.994 33.703 203.177 29.9205 203.177 24.3368C203.177 18.7532 200.02 14.9451 194.27 14.9451H185.903V33.703ZM189.342 30.6667V17.9556H193.859C197.094 17.9556 199.558 19.6796 199.558 24.2854C199.558 28.814 197.196 30.6667 193.859 30.6667H189.342Z" fill="#161F2C"/>
  <path d="M212.22 33.9602C215.711 33.9602 218.304 32.1333 218.766 29.4573H215.532C215.223 30.5894 213.966 31.4129 212.195 31.4129C209.962 31.4129 208.499 30.0491 208.55 27.6046H218.535C218.637 27.1672 218.689 26.5497 218.689 25.9579C218.689 22.2526 216.199 19.7825 212.169 19.7825C208.062 19.7825 205.29 22.5871 205.29 26.9099C205.29 31.1813 208.088 33.9602 212.22 33.9602ZM208.576 25.3918C208.653 23.5392 210.064 22.3041 212.092 22.3041C214.171 22.3041 215.403 23.4362 215.429 25.3918H208.576Z" fill="#161F2C"/>
  <path d="M234.311 28.814H231.051C230.872 30.2292 229.614 31.207 227.843 31.207C225.687 31.207 224.224 29.7661 224.224 26.9099C224.224 24.3111 225.456 22.5357 227.869 22.5357C229.383 22.5357 230.692 23.2304 231.026 24.8H234.286C234.003 21.738 231.436 19.7825 227.92 19.7825C223.685 19.7825 220.913 22.6129 220.913 26.8842C220.913 31.1298 223.685 33.9602 227.869 33.9602C231.436 33.9602 234.106 31.9274 234.311 28.814Z" fill="#161F2C"/>
  <path d="M236.549 18.2902H239.783V14.6621H236.549V18.2902ZM236.549 33.703H239.783V20.0399H236.549V33.703Z" fill="#161F2C"/>
  <path d="M242.822 37.9999H246.082V31.207H246.287C246.929 32.8024 248.674 33.9602 251.036 33.9602C254.629 33.9602 257.042 31.2842 257.042 26.8327C257.042 22.5357 254.757 19.7825 251.061 19.7825C248.854 19.7825 247.006 20.8632 246.287 22.5357H246.082L245.697 20.0398H242.822V37.9999ZM246.082 26.2667C246.082 24.1053 247.699 22.5357 249.958 22.5357C252.191 22.5357 253.705 24.0023 253.705 26.807C253.705 29.4315 252.396 31.2328 249.906 31.2328C247.647 31.2328 246.082 29.6889 246.082 27.5017V26.2667Z" fill="#161F2C"/>
  <path d="M258.804 29.9204C258.804 32.3649 260.627 33.9602 263.347 33.9602C265.452 33.9602 267.326 32.9566 267.993 31.49H268.173C268.25 33.1111 269.225 33.9087 270.868 33.9087C271.381 33.9087 271.997 33.8057 272.537 33.6515V31.3614C272.408 31.4129 272.203 31.4385 272.049 31.4385C271.381 31.4385 271.279 30.8983 271.279 30.4865V24.2596C271.279 21.3778 269.456 19.7825 265.504 19.7825C261.859 19.7825 259.523 21.6865 259.6 24.5427H262.68C262.629 23.2304 263.681 22.3298 265.401 22.3298C267.018 22.3298 268.019 22.8959 268.019 24.5169V25.2631L264.22 25.5462C260.909 25.7778 258.804 27.1158 258.804 29.9204ZM262.09 29.6117C262.09 28.4795 262.86 27.759 264.785 27.6046L268.019 27.3216V28.0935C268.019 30.0491 266.607 31.4385 264.477 31.4385C263.065 31.4385 262.09 30.8468 262.09 29.6117Z" fill="#161F2C"/>
  <path d="M288.148 33.7031V14.6621H284.888V22.6901H284.708C283.99 21.0176 282.347 19.7826 279.883 19.7826C276.341 19.7826 273.928 22.51 273.928 26.9615C273.928 31.2585 276.238 33.9603 279.857 33.9603C282.013 33.9603 283.938 32.9826 284.708 31.2843H284.888L285.273 33.7031H288.148ZM284.888 27.5533C284.888 29.689 283.348 31.2329 280.961 31.2329C278.728 31.2329 277.265 29.7662 277.265 26.9357C277.265 24.2597 278.574 22.5358 281.012 22.5358C283.245 22.5358 284.888 23.9252 284.888 26.2925V27.5533Z" fill="#161F2C"/>
  </g>
  </svg>
