<svg id="Layer_1" data-name="Layer 1" xmlns="http://www.w3.org/2000/svg" viewBox="0 0 131.2344 131.2399">
  <title>the-bureau-logo-mark-one-color-rgb</title>
  <g id="logoMark">
    <path id="logoMark_PathItem_" data-name="logoMark &lt;PathItem&gt;" d="M103.1138,23.4372H84.3617a4.6855,4.6855,0,0,1-4.6851-4.6852V4.6852A4.6855,4.6855,0,0,0,74.9914,0H60.93a4.6855,4.6855,0,0,0-4.6852,4.6852V18.752A4.6855,4.6855,0,0,0,60.93,23.4372H74.9914a4.6855,4.6855,0,0,1,4.6852,4.6852V46.8745A4.6856,4.6856,0,0,0,84.3617,51.56h18.7521a4.6857,4.6857,0,0,0,4.6853-4.6852V28.1224A4.6856,4.6856,0,0,0,103.1138,23.4372Z"/>
    <path id="logoMark_PathItem_2" data-name="logoMark &lt;PathItem&gt;" d="M107.7972,103.1156V84.3635a4.6856,4.6856,0,0,1,4.6852-4.6851h14.0669a4.6855,4.6855,0,0,0,4.6851-4.6852V60.932a4.6856,4.6856,0,0,0-4.6851-4.6853H112.4824a4.6857,4.6857,0,0,0-4.6852,4.6853V74.9932a4.6855,4.6855,0,0,1-4.6852,4.6852H84.36a4.6856,4.6856,0,0,0-4.6852,4.6851v18.7521a4.6856,4.6856,0,0,0,4.6852,4.6853h18.752A4.6856,4.6856,0,0,0,107.7972,103.1156Z"/>
    <path id="logoMark_PathItem_3" data-name="logoMark &lt;PathItem&gt;" d="M28.1206,107.8027H46.8727a4.6855,4.6855,0,0,1,4.6851,4.6852v14.0668a4.6856,4.6856,0,0,0,4.6853,4.6852H70.3043a4.6855,4.6855,0,0,0,4.6852-4.6852V112.4879a4.6855,4.6855,0,0,0-4.6852-4.6852H56.2431a4.6856,4.6856,0,0,1-4.6853-4.6852V84.3654A4.6855,4.6855,0,0,0,46.8727,79.68H28.1206a4.6855,4.6855,0,0,0-4.6852,4.6851v18.7521A4.6855,4.6855,0,0,0,28.1206,107.8027Z"/>
    <path id="logoMark_PathItem_4" data-name="logoMark &lt;PathItem&gt;" d="M23.4372,28.1243V46.8764a4.6855,4.6855,0,0,1-4.6852,4.6851H4.6852A4.6855,4.6855,0,0,0,0,56.2467V70.308a4.6855,4.6855,0,0,0,4.6852,4.6852H18.752a4.6855,4.6855,0,0,0,4.6852-4.6852V56.2467a4.6855,4.6855,0,0,1,4.6852-4.6852H46.8745A4.6856,4.6856,0,0,0,51.56,46.8764V28.1243a4.6857,4.6857,0,0,0-4.6852-4.6853H28.1224A4.6856,4.6856,0,0,0,23.4372,28.1243Z"/>
    <rect id="logoMark_PathItem_5" data-name="logoMark &lt;PathItem&gt;" x="54.2633" y="53.9023" width="23.4354" height="23.4354" rx="4.6852"/>
  </g>
</svg>
