<svg width="24" height="24" viewBox="0 0 24 24" fill="none" xmlns="http://www.w3.org/2000/svg">
<path d="M7.75 9.25V9.26M16.25 14.25V14.26M4.75 15.25V8.75C4.75 8.21957 4.96071 7.71086 5.33579 7.33579C5.71086 6.96071 6.21957 6.75 6.75 6.75H10.75V17.25H6.75C6.21957 17.25 5.71086 17.0393 5.33579 16.6642C4.96071 16.2891 4.75 15.7804 4.75 15.25ZM19.25 15.25V8.75C19.25 8.21957 19.0393 7.71086 18.6642 7.33579C18.2891 6.96071 17.7804 6.75 17.25 6.75H13.25V17.25H17.25C17.7804 17.25 18.2891 17.0393 18.6642 16.6642C19.0393 16.2891 19.25 15.7804 19.25 15.25Z" stroke="black" stroke-width="1.5" stroke-linecap="round" stroke-linejoin="round"/>
</svg>
