<svg width="24" height="24" viewBox="0 0 24 24" fill="none" xmlns="http://www.w3.org/2000/svg">
<path d="M14.625 13.33V13.3C14.625 11.892 13.45 10.75 12 10.75C10.55 10.75 9.375 11.892 9.375 13.3V13.33C7.891 13.536 6.75 14.776 6.75 16.275C6.75 17.918 8.121 19.25 9.813 19.25C10.669 19.25 11.444 18.908 12 18.357C12.556 18.908 13.33 19.25 14.188 19.25C15.878 19.25 17.25 17.918 17.25 16.275C17.25 14.776 16.109 13.536 14.625 13.33Z" stroke="black" stroke-width="1.5" stroke-linecap="round" stroke-linejoin="round"/>
<path d="M6 12C7.10457 12 8 11.1046 8 10C8 8.89543 7.10457 8 6 8C4.89543 8 4 8.89543 4 10C4 11.1046 4.89543 12 6 12Z" stroke="black" stroke-width="1.5" stroke-linecap="round" stroke-linejoin="round"/>
<path d="M12 8C13.1046 8 14 7.10457 14 6C14 4.89543 13.1046 4 12 4C10.8954 4 10 4.89543 10 6C10 7.10457 10.8954 8 12 8Z" stroke="black" stroke-width="1.5" stroke-linecap="round" stroke-linejoin="round"/>
<path d="M18 12C19.1046 12 20 11.1046 20 10C20 8.89543 19.1046 8 18 8C16.8954 8 16 8.89543 16 10C16 11.1046 16.8954 12 18 12Z" stroke="black" stroke-width="1.5" stroke-linecap="round" stroke-linejoin="round"/>
</svg>
