<svg width="24" height="24" viewBox="0 0 24 24" fill="none" xmlns="http://www.w3.org/2000/svg">
<path d="M9.74997 14.25L19.16 4.75M11.217 18.512C10.01 19.718 7.74997 19.414 6.16697 17.832C4.58597 16.25 4.28197 13.99 5.48797 12.783C6.69497 11.577 8.51397 11.19 9.01397 10.69C9.27597 10.428 9.40897 9.9 9.47697 9.457C9.54197 9.034 9.85197 8.706 10.292 8.755C11.123 8.848 12.502 9.185 13.659 10.341C14.815 11.498 15.152 12.877 15.245 13.708C15.295 14.148 14.965 14.458 14.543 14.523C14.1 14.591 13.572 14.724 13.31 14.986C12.81 15.486 12.423 17.305 11.217 18.512Z" stroke="black" stroke-width="1.5" stroke-linecap="round" stroke-linejoin="round"/>
</svg>
