<svg width="24" height="24" viewBox="0 0 24 24" fill="none" xmlns="http://www.w3.org/2000/svg">
<path d="M12.5 9C12.5 9.13261 12.4473 9.25979 12.3536 9.35355C12.2598 9.44732 12.1326 9.5 12 9.5C11.8674 9.5 11.7402 9.44732 11.6464 9.35355C11.5527 9.25979 11.5 9.13261 11.5 9C11.5 8.86739 11.5527 8.74021 11.6464 8.64645C11.7402 8.55268 11.8674 8.5 12 8.5C12.1326 8.5 12.2598 8.55268 12.3536 8.64645C12.4473 8.74021 12.5 8.86739 12.5 9Z" stroke="black" stroke-linecap="round" stroke-linejoin="round"/>
<path d="M5.7499 13.75L4.9639 18.071C4.93768 18.2151 4.94345 18.3633 4.98079 18.5049C5.01813 18.6466 5.08615 18.7783 5.18001 18.8908C5.27388 19.0032 5.39131 19.0937 5.52401 19.1558C5.6567 19.2179 5.80141 19.25 5.9479 19.25H18.0519C18.1984 19.25 18.3431 19.2179 18.4758 19.1558C18.6085 19.0937 18.7259 19.0032 18.8198 18.8908C18.9137 18.7783 18.9817 18.6466 19.019 18.5049C19.0564 18.3633 19.0621 18.2151 19.0359 18.071L18.2499 13.75M16.2499 8.95C16.2499 12 11.9999 15.25 11.9999 15.25C11.9999 15.25 7.7499 12 7.7499 8.95C7.7499 6.63 9.6529 4.75 11.9999 4.75C14.3469 4.75 16.2499 6.63 16.2499 8.95Z" stroke="black" stroke-width="1.5" stroke-linecap="round" stroke-linejoin="round"/>
</svg>
