<svg width="24" height="24" viewBox="0 0 24 24" fill="none" xmlns="http://www.w3.org/2000/svg">
<path d="M12 12.75H6.75L5.75 15.75M12 12.75H17.25L18.25 15.75M12 12.75V15.75M5.75 15.75L4.75 19.25H12M5.75 15.75H12M18.25 15.75L19.25 19.25H12M18.25 15.75H12M12 15.75V19.25M7.75 10.25H8.5C8.5663 10.25 8.62989 10.2237 8.67678 10.1768C8.72366 10.1299 8.75 10.0663 8.75 10C8.75 9.13805 9.09241 8.3114 9.7019 7.7019C10.3114 7.09241 11.138 6.75 12 6.75C12.862 6.75 13.6886 7.09241 14.2981 7.7019C14.9076 8.3114 15.25 9.13805 15.25 10C15.25 10.138 15.362 10.25 15.5 10.25H16.25M12 4.75V6.5M8.75 6.75L9.502 7.502M15.25 6.75L14.5 7.5" stroke="black" stroke-width="1.5" stroke-linecap="round" stroke-linejoin="round"/>
</svg>
