<svg width="24" height="24" viewBox="0 0 24 24" fill="none" xmlns="http://www.w3.org/2000/svg">
<path d="M12 19.25V4.75M12.75 10.25V8.75C12.75 7.95435 13.0661 7.19129 13.6287 6.62868C14.1913 6.06607 14.9544 5.75 15.75 5.75H17.25V7.25C17.25 8.04565 16.9339 8.80871 16.3713 9.37132C15.8087 9.93393 15.0456 10.25 14.25 10.25H12.75ZM11.25 10.25V8.75C11.25 7.95435 10.9339 7.19129 10.3713 6.62868C9.80871 6.06607 9.04565 5.75 8.25 5.75H6.75V7.25C6.75 8.04565 7.06607 8.80871 7.62868 9.37132C8.19129 9.93393 8.95435 10.25 9.75 10.25H11.25ZM12.75 17.25V15.75C12.75 14.9544 13.0661 14.1913 13.6287 13.6287C14.1913 13.0661 14.9544 12.75 15.75 12.75H17.25V14.25C17.25 15.0456 16.9339 15.8087 16.3713 16.3713C15.8087 16.9339 15.0456 17.25 14.25 17.25H12.75ZM11.25 17.25V15.75C11.25 14.9544 10.9339 14.1913 10.3713 13.6287C9.80871 13.0661 9.04565 12.75 8.25 12.75H6.75V14.25C6.75 15.0456 7.06607 15.8087 7.62868 16.3713C8.19129 16.9339 8.95435 17.25 9.75 17.25H11.25Z" stroke="black" stroke-width="1.5" stroke-linecap="round" stroke-linejoin="round"/>
</svg>
