<svg width="16" height="16" viewBox="0 0 16 16" fill="none" xmlns="http://www.w3.org/2000/svg">
<path d="M11.6676 8.14398C11.6367 8.07778 11.6207 8.00563 11.6207 7.93258V6.65217C11.6207 4.63513 9.99966 3 8 3C6.00035 3 4.37931 4.63514 4.37931 6.65217V7.93258C4.37931 8.00563 4.36331 8.07778 4.33243 8.14398L3.33189 10.2886C3.17724 10.6201 3.41922 11 3.785 11H12.215C12.5808 11 12.8228 10.6201 12.6681 10.2886L11.6676 8.14398Z" fill="black" fill-opacity="0.1" stroke="black" stroke-width="1.2" stroke-linecap="round" stroke-linejoin="round"/>
<path d="M6 11C6 11 6 13 8 13C10 13 10 11 10 11" stroke="black" stroke-width="1.2" stroke-linecap="round" stroke-linejoin="round"/>
</svg>
