<svg width="16" height="16" viewBox="0 0 16 16" fill="none" xmlns="http://www.w3.org/2000/svg">
<path fill-rule="evenodd" clip-rule="evenodd" d="M6.39541 1.9624C6.72678 1.9624 6.99541 2.23103 6.99541 2.5624V4.01243H5.79541V2.5624C5.79541 2.23103 6.06404 1.9624 6.39541 1.9624ZM5.79541 11.1057V13.4378C5.79541 13.7692 6.06404 14.0378 6.39541 14.0378C6.72678 14.0378 6.99541 13.7692 6.99541 13.4378V11.1057H5.79541ZM8.2674 11.1057V13.4378C8.2674 13.7692 8.53603 14.0378 8.8674 14.0378C9.19877 14.0378 9.4674 13.7692 9.4674 13.4378V11.1057H8.2674ZM9.4674 4.01243V2.5624C9.4674 2.23103 9.19877 1.9624 8.8674 1.9624C8.53603 1.9624 8.2674 2.23103 8.2674 2.5624V4.01243H9.4674Z" fill="black"/>
<path d="M4.2002 4.32642H9.4925C9.96036 4.32642 10.4091 4.51228 10.7399 4.84311C11.0707 5.17394 11.2566 5.62265 11.2566 6.09052C11.2566 6.55838 11.0707 7.00709 10.7399 7.33792C10.4091 7.66876 9.96036 7.85462 9.4925 7.85462H4.2002V4.32642Z" stroke="black" stroke-width="1.2" stroke-linecap="round" stroke-linejoin="round"/>
<path d="M4.2002 7.85449H9.93352C10.4014 7.85449 10.8501 8.04035 11.1809 8.37119C11.5118 8.70202 11.6976 9.15072 11.6976 9.61859C11.6976 10.0865 11.5118 10.5352 11.1809 10.866C10.8501 11.1968 10.4014 11.3827 9.93352 11.3827H4.2002V7.85449Z" stroke="black" stroke-width="1.2" stroke-linecap="round" stroke-linejoin="round"/>
</svg>
