<svg width="16" height="16" viewBox="0 0 16 16" fill="none" xmlns="http://www.w3.org/2000/svg">
<path d="M7.49984 7.50008C7.49984 8.23648 6.9029 8.83341 6.1665 8.83341H4.49984C3.76346 8.83341 3.1665 8.23648 3.1665 7.50008V6.04241C3.1665 5.48421 3.39978 4.95141 3.80994 4.5728L5.33317 3.16675V5.16675H6.1665C6.9029 5.16675 7.49984 5.7637 7.49984 6.50008V7.50008Z" stroke="black" stroke-linecap="round" stroke-linejoin="round"/>
<path d="M12.8333 11.5001C12.8333 12.2365 12.2364 12.8334 11.5 12.8334H9.83333C9.09693 12.8334 8.5 12.2365 8.5 11.5001V10.0424C8.5 9.48421 8.73327 8.95141 9.14347 8.57281L10.6667 7.16675V9.16675H11.5C12.2364 9.16675 12.8333 9.76368 12.8333 10.5001V11.5001Z" fill="black" fill-opacity="0.1" stroke="black" stroke-linecap="round" stroke-linejoin="round"/>
</svg>
