<svg width="16" height="16" viewBox="0 0 16 16" fill="none" xmlns="http://www.w3.org/2000/svg">
<path d="M12.8333 3.83317C12.8333 3.46498 12.5349 3.1665 12.1667 3.1665H9.33333C8.59695 3.1665 8 3.76346 8 4.49984V12.8332L8.55229 12.2809C9.05238 11.7808 9.73066 11.4998 10.4379 11.4998H12.1667C12.5349 11.4998 12.8333 11.2014 12.8333 10.8332V3.83317Z" stroke="black" stroke-width="1.2" stroke-linecap="round" stroke-linejoin="round"/>
<path d="M3.1665 3.83317C3.1665 3.46498 3.46498 3.1665 3.83317 3.1665H6.6665C7.40288 3.1665 7.99984 3.76346 7.99984 4.49984V12.8332L7.44755 12.2809C6.94746 11.7808 6.26918 11.4998 5.56193 11.4998H3.83317C3.46498 11.4998 3.1665 11.2014 3.1665 10.8332V3.83317Z" stroke="black" stroke-width="1.2" stroke-linecap="round" stroke-linejoin="round"/>
</svg>
