<svg width="16" height="16" viewBox="0 0 16 16" fill="none" xmlns="http://www.w3.org/2000/svg">
<path d="M9.20632 12.5046L8.78206 12.0804L8.78206 12.0804L9.20632 12.5046ZM13.937 7.77393L13.5127 7.34967L13.5127 7.34967L13.937 7.77393ZM7.74951 12.5046L8.17377 12.0804L8.17377 12.0804L7.74951 12.5046ZM6.64694 11.4021L7.0712 10.9778C6.8384 10.745 6.46148 10.7433 6.22656 10.9739L6.64694 11.4021ZM4.51586 13.4946L4.09548 13.0665L4.09548 13.0665L4.51586 13.4946ZM3.06572 13.488L2.64146 13.9122L2.64146 13.9122L3.06572 13.488ZM2.70158 13.1238L3.12584 12.6996L3.12584 12.6996L2.70158 13.1238ZM2.70826 11.6604L2.28788 11.2323L2.28788 11.2323L2.70826 11.6604ZM4.82592 9.58103L5.2463 10.0092C5.36052 9.897 5.42519 9.74385 5.42592 9.58377C5.42665 9.42369 5.36338 9.26996 5.25019 9.15677L4.82592 9.58103ZM3.74327 8.49838L4.16753 8.07412L4.16753 8.07412L3.74327 8.49838ZM3.74327 7.04157L3.31901 6.6173L3.31901 6.6173L3.74327 7.04157ZM8.4714 2.31344L8.89566 2.7377L8.89566 2.7377L8.4714 2.31344ZM9.93467 2.31995L10.3627 1.89949L10.3627 1.89949L9.93467 2.31995ZM10.4833 2.87843L11.0396 3.10307C11.129 2.88165 11.0786 2.6283 10.9113 2.45796L10.4833 2.87843ZM9.37769 5.61664L8.82133 5.392C8.73821 5.59786 8.77555 5.83278 8.9184 6.00272C9.06125 6.17266 9.28626 6.24983 9.50334 6.20334L9.37769 5.61664ZM12.1208 5.02919L11.9951 4.44249L11.9951 4.44249L12.1208 5.02919ZM12.8509 5.2427L13.2729 4.81615L13.2729 4.81615L12.8509 5.2427ZM13.9331 6.31318L13.5111 6.73974L13.5111 6.73974L13.9331 6.31318ZM9.63059 12.9289L14.3613 8.1982L13.5127 7.34967L8.78206 12.0804L9.63059 12.9289ZM7.32525 12.9289C7.96185 13.5655 8.99399 13.5655 9.63059 12.9289L8.78206 12.0804C8.61409 12.2483 8.34175 12.2483 8.17377 12.0804L7.32525 12.9289ZM6.22268 11.8263L7.32525 12.9289L8.17377 12.0804L7.0712 10.9778L6.22268 11.8263ZM4.93624 13.9227L7.06732 11.8302L6.22656 10.9739L4.09548 13.0665L4.93624 13.9227ZM2.64146 13.9122C3.27396 14.5447 4.29799 14.5494 4.93624 13.9227L4.09548 13.0665C3.92708 13.2318 3.65688 13.2306 3.48999 13.0637L2.64146 13.9122ZM2.27731 13.5481L2.64146 13.9122L3.48999 13.0637L3.12584 12.6996L2.27731 13.5481ZM2.28788 11.2323C1.64135 11.8671 1.6366 12.9074 2.27732 13.5481L3.12584 12.6996C2.95679 12.5305 2.95804 12.256 3.12863 12.0885L2.28788 11.2323ZM4.40555 9.15292L2.28788 11.2323L3.12863 12.0885L5.2463 10.0092L4.40555 9.15292ZM3.31901 8.92265L4.40166 10.0053L5.25019 9.15677L4.16753 8.07412L3.31901 8.92265ZM3.31901 6.6173C2.6824 7.25391 2.6824 8.28604 3.31901 8.92265L4.16753 8.07412C3.99956 7.90614 3.99956 7.63381 4.16753 7.46583L3.31901 6.6173ZM8.04714 1.88917L3.31901 6.6173L4.16753 7.46583L8.89566 2.7377L8.04714 1.88917ZM10.3627 1.89949C9.72781 1.25319 8.68775 1.24856 8.04714 1.88917L8.89566 2.7377C9.0647 2.56867 9.33913 2.56989 9.50665 2.74042L10.3627 1.89949ZM10.9113 2.45796L10.3627 1.89949L9.50665 2.74042L10.0553 3.2989L10.9113 2.45796ZM9.93405 5.84128L11.0396 3.10307L9.92693 2.65379L8.82133 5.392L9.93405 5.84128ZM11.9951 4.44249L9.25204 5.02995L9.50334 6.20334L12.2464 5.61588L11.9951 4.44249ZM13.2729 4.81615C12.9372 4.48411 12.4568 4.34362 11.9951 4.44249L12.2464 5.61588C12.3124 5.60176 12.381 5.62183 12.4289 5.66926L13.2729 4.81615ZM14.355 5.88663L13.2729 4.81615L12.4289 5.66926L13.5111 6.73974L14.355 5.88663ZM14.3613 8.1982C15.0003 7.55916 14.9975 6.5222 14.355 5.88663L13.5111 6.73974C13.6806 6.90744 13.6814 7.18105 13.5127 7.34967L14.3613 8.1982Z" fill="black"/>
<path d="M11.1019 10.5162L13.9178 7.77342C14.3307 7.37123 14.3333 6.70851 13.9235 6.30315L12.8511 5.24231C12.6593 5.05258 12.3848 4.9723 12.121 5.02879L9.37791 5.61625L10.4835 2.87804L9.93615 2.32084C9.53446 1.91193 8.87624 1.90957 8.47162 2.31558L5.55336 5.24392C5.14171 5.657 5.15473 6.32912 5.58208 6.72594L9.68217 10.5332C10.0844 10.9066 10.7087 10.8992 11.1019 10.5162Z" fill="black" fill-opacity="0.1" stroke="black" stroke-width="1.2" stroke-linejoin="round"/>
<path d="M4.7998 6L9.9998 11.2" stroke="black" stroke-width="1.2"/>
</svg>
