<svg width="16" height="16" viewBox="0 0 16 16" fill="none" xmlns="http://www.w3.org/2000/svg">
<path d="M7.05792 9.8224L6.07961 8.59951C5.41387 7.76734 5.081 7.35125 5.08063 7.00108C5.0803 6.69654 5.21876 6.40845 5.45677 6.21846C5.73045 6 6.2633 6 7.329 6H8.90742C10.0456 6 10.6146 6 10.892 6.22944C11.133 6.42875 11.2668 6.72929 11.2538 7.04172C11.2387 7.40139 10.8581 7.82438 10.0967 8.67035L9.00885 9.87906C8.66168 10.2648 8.4881 10.4577 8.28585 10.5242C8.10837 10.5826 7.91604 10.577 7.74225 10.5084C7.5442 10.4303 7.38211 10.2276 7.05792 9.8224Z" fill="black"/>
</svg>
