<svg width="16" height="16" viewBox="0 0 16 16" fill="none" xmlns="http://www.w3.org/2000/svg">
<path d="M9.5724 9.19208L8.34951 10.1704C7.51734 10.8361 7.10125 11.169 6.75108 11.1694C6.44654 11.1697 6.15845 11.0312 5.96846 10.7932C5.75 10.5196 5.75 9.9867 5.75 8.921L5.75 7.34258C5.75 6.20445 5.75 5.63538 5.97944 5.35799C6.17875 5.11704 6.47929 4.98319 6.79172 4.99623C7.15139 5.01125 7.57438 5.39194 8.42035 6.15331L9.62906 7.24115C10.0148 7.58832 10.2077 7.7619 10.2742 7.96415C10.3326 8.14163 10.327 8.33396 10.2584 8.50775C10.1803 8.7058 9.97763 8.86789 9.5724 9.19208Z" fill="black"/>
</svg>
