<svg width="16" height="16" viewBox="0 0 16 16" fill="none" xmlns="http://www.w3.org/2000/svg">
<path d="M9.44208 6.67761L10.4204 7.90049C11.0861 8.73266 11.419 9.14875 11.4194 9.49892C11.4197 9.80346 11.2812 10.0916 11.0432 10.2815C10.7696 10.5 10.2367 10.5 9.171 10.5L7.59258 10.5C6.45445 10.5 5.88538 10.5 5.60799 10.2706C5.36704 10.0713 5.23319 9.77071 5.24623 9.45828C5.26125 9.09861 5.64194 8.67563 6.40331 7.82966L7.49115 6.62094C7.83832 6.2352 8.0119 6.04233 8.21415 5.97581C8.39163 5.91743 8.58395 5.92302 8.75775 5.9916C8.9558 6.06975 9.11789 6.27237 9.44208 6.67761Z" fill="black"/>
</svg>
