<svg width="16" height="16" viewBox="0 0 16 16" fill="none" xmlns="http://www.w3.org/2000/svg">
<path d="M6.9276 7.30792L8.15049 6.32961C8.98266 5.66387 9.39875 5.331 9.74892 5.33063C10.0535 5.3303 10.3416 5.46876 10.5315 5.70677C10.75 5.98045 10.75 6.5133 10.75 7.579V9.15742C10.75 10.2956 10.75 10.8646 10.5206 11.142C10.3213 11.383 10.0207 11.5168 9.70828 11.5038C9.34861 11.4887 8.92562 11.1081 8.07965 10.3467L6.87094 9.25885C6.4852 8.91168 6.29233 8.7381 6.22581 8.53585C6.16743 8.35837 6.17302 8.16604 6.2416 7.99225C6.31975 7.7942 6.52237 7.63211 6.9276 7.30792Z" fill="black"/>
</svg>
