<svg width="16" height="16" viewBox="0 0 16 16" fill="none" xmlns="http://www.w3.org/2000/svg">
<path d="M3 4.45455V5.54545C3 6.34878 3.65122 7 4.45455 7H5.54545C6.34878 7 7 6.34878 7 5.54545V4.45455C7 3.65122 6.34878 3 5.54545 3H4.45455C3.65122 3 3 3.65122 3 4.45455Z" fill="black" fill-opacity="0.1" stroke="black" stroke-linecap="round" stroke-linejoin="round"/>
<path d="M9 4.45455V5.54545C9 6.34878 9.65122 7 10.4545 7H11.5455C12.3488 7 13 6.34878 13 5.54545V4.45455C13 3.65122 12.3488 3 11.5455 3H10.4545C9.65122 3 9 3.65122 9 4.45455Z" fill="black" fill-opacity="0.1" stroke="black" stroke-linecap="round" stroke-linejoin="round"/>
<path d="M3 10.4545V11.5455C3 12.3488 3.65122 13 4.45455 13H5.54545C6.34878 13 7 12.3488 7 11.5455V10.4545C7 9.65122 6.34878 9 5.54545 9H4.45455C3.65122 9 3 9.65122 3 10.4545Z" fill="black" fill-opacity="0.1" stroke="black" stroke-linecap="round" stroke-linejoin="round"/>
<path d="M9 10.4545V11.5455C9 12.3488 9.65122 13 10.4545 13H11.5455C12.3488 13 13 12.3488 13 11.5455V10.4545C13 9.65122 12.3488 9 11.5455 9H10.4545C9.65122 9 9 9.65122 9 10.4545Z" fill="black" fill-opacity="0.1" stroke="black" stroke-linecap="round" stroke-linejoin="round"/>
</svg>
