<svg width="16" height="16" viewBox="0 0 16 16" fill="none" xmlns="http://www.w3.org/2000/svg">
<path fill-rule="evenodd" clip-rule="evenodd" d="M4.69482 3.69971H11.3056C12.4102 3.69971 13.3056 4.59514 13.3056 5.69971V9.12727C13.3056 10.2318 12.4102 11.1273 11.3056 11.1273H10.8298V11.8497C10.8298 12.7214 9.79206 13.1758 9.15149 12.5845L8.11113 11.6241C7.95401 11.4791 7.8579 11.3065 7.81461 11.1273H4.69482C3.59025 11.1273 2.69482 10.2318 2.69482 9.12727V5.69971C2.69482 4.59514 3.59025 3.69971 4.69482 3.69971Z" fill="black" fill-opacity="0.1"/>
<path d="M10.8298 11.1273V10.5273H10.2298V11.1273H10.8298ZM9.15149 12.5845L9.55846 12.1436L9.55846 12.1436L9.15149 12.5845ZM8.11113 11.6241L8.5181 11.1833L8.5181 11.1833L8.11113 11.6241ZM7.81461 11.1273L8.39783 10.9864L8.28693 10.5273H7.81461V11.1273ZM11.3056 3.09971H4.69482V4.29971H11.3056V3.09971ZM13.9056 5.69971C13.9056 4.26377 12.7416 3.09971 11.3056 3.09971V4.29971C12.0788 4.29971 12.7056 4.92651 12.7056 5.69971H13.9056ZM13.9056 9.12727V5.69971H12.7056V9.12727H13.9056ZM11.3056 11.7273C12.7416 11.7273 13.9056 10.5632 13.9056 9.12727H12.7056C12.7056 9.90047 12.0788 10.5273 11.3056 10.5273V11.7273ZM10.8298 11.7273H11.3056V10.5273H10.8298V11.7273ZM10.2298 11.1273V11.8497H11.4298V11.1273H10.2298ZM10.2298 11.8497C10.2298 12.1984 9.81469 12.3801 9.55846 12.1436L8.74452 13.0254C9.76944 13.9714 11.4298 13.2445 11.4298 11.8497H10.2298ZM9.55846 12.1436L8.5181 11.1833L7.70416 12.065L8.74452 13.0254L9.55846 12.1436ZM8.5181 11.1833C8.44856 11.1191 8.41345 11.051 8.39783 10.9864L7.23138 11.2682C7.30235 11.562 7.45946 11.8392 7.70416 12.065L8.5181 11.1833ZM4.69482 11.7273H7.81461V10.5273H4.69482V11.7273ZM2.09482 9.12727C2.09482 10.5632 3.25888 11.7273 4.69482 11.7273V10.5273C3.92162 10.5273 3.29482 9.90047 3.29482 9.12727H2.09482ZM2.09482 5.69971V9.12727H3.29482V5.69971H2.09482ZM4.69482 3.09971C3.25888 3.09971 2.09482 4.26376 2.09482 5.69971H3.29482C3.29482 4.92651 3.92163 4.29971 4.69482 4.29971V3.09971Z" fill="black"/>
</svg>
