<svg width="16" height="16" viewBox="0 0 16 16" fill="none" xmlns="http://www.w3.org/2000/svg">
  <path d="M2 2V14H14" stroke="black" stroke-width="1.2" stroke-linecap="round" stroke-linejoin="round"/>
  <path fill-rule="evenodd" clip-rule="evenodd" d="M5 3.5H7V5.5H5V3.5ZM7 6.5H5V8.5H7V6.5ZM8 11.5V9.5H10C10.5523 9.5 11 9.05228 11 8.5V6.5H13C13.5523 6.5 14 6.05228 14 5.5V3.5C14 2.94772 13.5523 2.5 13 2.5H11H10H8H7H5C4.44772 2.5 4 2.94772 4 3.5V5.5V6.5V8.5V9.5V11.5C4 12.0523 4.44772 12.5 5 12.5H7C7.55228 12.5 8 12.0523 8 11.5ZM10 3.5H8V5.5H10V3.5ZM11 5.5H13V3.5H11V5.5ZM5 11.5V9.5H7V11.5H5ZM10 6.5H8V8.5H10V6.5Z" fill="black"/>
</svg>
