<svg width="16" height="16" viewBox="0 0 16 16" fill="none" xmlns="http://www.w3.org/2000/svg">
<path d="M11.3333 3C10.8913 3 10.4674 3.17559 10.1548 3.48816C9.84226 3.80072 9.66667 4.22464 9.66667 4.66667V11.3333C9.66667 11.7754 9.84226 12.1993 10.1548 12.5118C10.4674 12.8244 10.8913 13 11.3333 13C11.7754 13 12.1993 12.8244 12.5118 12.5118C12.8244 12.1993 13 11.7754 13 11.3333C13 10.8913 12.8244 10.4674 12.5118 10.1548C12.1993 9.84226 11.7754 9.66667 11.3333 9.66667H4.66667C4.22464 9.66667 3.80072 9.84226 3.48816 10.1548C3.17559 10.4674 3 10.8913 3 11.3333C3 11.7754 3.17559 12.1993 3.48816 12.5118C3.80072 12.8244 4.22464 13 4.66667 13C5.10869 13 5.53262 12.8244 5.84518 12.5118C6.15774 12.1993 6.33333 11.7754 6.33333 11.3333V4.66667C6.33333 4.22464 6.15774 3.80072 5.84518 3.48816C5.53262 3.17559 5.10869 3 4.66667 3C4.22464 3 3.80072 3.17559 3.48816 3.48816C3.17559 3.80072 3 4.22464 3 4.66667C3 5.10869 3.17559 5.53262 3.48816 5.84518C3.80072 6.15774 4.22464 6.33333 4.66667 6.33333H11.3333C11.7754 6.33333 12.1993 6.15774 12.5118 5.84518C12.8244 5.53262 13 5.10869 13 4.66667C13 4.22464 12.8244 3.80072 12.5118 3.48816C12.1993 3.17559 11.7754 3 11.3333 3Z" stroke="black" stroke-width="1.2" stroke-linecap="round" stroke-linejoin="round"/>
</svg>
