<svg viewBox="0 0 40 40" fill="none" xmlns="http://www.w3.org/2000/svg">
<path d="M27.0751 28.7346L29.1723 20.9077C29.3929 20.0843 28.8625 19.2268 27.9876 18.9923L24.0272 17.9311L18.5722 20.8637L17.1741 26.0817C16.9534 26.905 17.4838 27.7626 18.3588 27.997L25.0914 29.801C25.9664 30.0354 26.8545 29.558 27.0751 28.7346Z" fill="white"/>
<path d="M24.0272 17.9311L27.9876 18.9923C28.8625 19.2268 29.3929 20.0843 29.1723 20.9077L27.0751 28.7346C26.8545 29.558 25.9664 30.0354 25.0914 29.801L18.3588 27.997C17.4838 27.7626 16.9534 26.905 17.1741 26.0817L18.5722 20.8637M24.0272 17.9311L23.3281 20.5401C23.1075 21.3635 22.2194 21.8409 21.3445 21.6065L18.5722 20.8637M24.0272 17.9311L18.5722 20.8637" stroke="#4D5664" stroke-width="1.3" stroke-linecap="round" stroke-linejoin="round"/>
<path d="M20.0498 25.799L24.8794 27.093" stroke="#4D5664" stroke-width="1.2" stroke-linecap="round" stroke-linejoin="round"/>
<path d="M23.5811 24.2101L25.5129 24.7278" stroke="#4D5664" stroke-width="1.2" stroke-linecap="round" stroke-linejoin="round"/>
<path d="M17.8235 23.6492C21.3098 23.2828 24.2529 21.9291 24.1482 20.933L23.2004 11.9152L10.1245 13.2895L11.0723 22.3073C11.177 23.3034 14.3372 24.0156 17.8235 23.6492Z" fill="#ECF0F6" stroke="#4D5664" stroke-width="1.3" stroke-linecap="round" stroke-linejoin="round"/>
<path d="M23.675 16.424C23.7797 17.4201 20.8366 18.7738 17.3503 19.1402C13.864 19.5066 10.7038 18.7944 10.5991 17.7983" stroke="#4D5664" stroke-width="1.3" stroke-linecap="round" stroke-linejoin="round"/>
<path d="M23.2003 11.9151C23.305 12.9112 20.3619 14.2649 16.8756 14.6313C13.3893 14.9977 10.2291 14.2855 10.1244 13.2895C10.0197 12.2934 12.9628 10.9397 16.4491 10.5733C19.9354 10.2068 23.0956 10.919 23.2003 11.9151Z" fill="#ECF0F6" stroke="#4D5664" stroke-width="1.3" stroke-linecap="round" stroke-linejoin="round"/>
</svg>
