<svg width="16" height="16" viewBox="0 0 16 16" fill="none" xmlns="http://www.w3.org/2000/svg">
<g clip-path="url(#clip0_528_1325)">
<path d="M4.2854 3.82162H6.14296C6.26604 3.82161 6.38406 3.77271 6.47107 3.68568C6.55812 3.59864 6.60701 3.4806 6.60701 3.35752V1.9641C6.60706 1.84102 6.65595 1.72298 6.74296 1.63594C6.83001 1.54891 6.94803 1.50001 7.07111 1.5H8.46402C8.5871 1.50001 8.70517 1.54891 8.79217 1.63594C8.87923 1.72298 8.92812 1.84102 8.92812 1.9641V3.35752C8.92812 3.48061 8.87923 3.59865 8.79217 3.68568C8.70517 3.77272 8.5871 3.82161 8.46402 3.82162H7.07111C6.94803 3.82163 6.83001 3.87053 6.74296 3.95756C6.65595 4.0446 6.60706 4.16264 6.60701 4.28572V6.14327C6.60701 6.26636 6.55812 6.38438 6.47112 6.47143C6.38406 6.55849 6.26604 6.60737 6.14296 6.60737H4.2854C4.16232 6.60737 4.04428 6.55849 3.95724 6.47143C3.87021 6.38442 3.8213 6.26636 3.82129 6.14327V4.28572C3.8213 4.16264 3.8702 4.0446 3.95724 3.95756C4.04428 3.87053 4.16232 3.82163 4.2854 3.82162Z" fill="black"/>
<path d="M3.82163 11.716V9.8584C3.82161 9.73532 3.77271 9.6173 3.68568 9.53024C3.59865 9.44323 3.48061 9.39435 3.35753 9.3943H1.96409C1.84101 9.3943 1.72297 9.34541 1.63594 9.25836C1.54891 9.17135 1.50001 9.05328 1.5 8.9302V7.53734C1.50001 7.41426 1.54891 7.29624 1.63594 7.20919C1.72297 7.12218 1.84101 7.07324 1.96409 7.07324H3.35753C3.48061 7.07324 3.59865 7.12218 3.68568 7.20919C3.77272 7.29624 3.82162 7.41426 3.82163 7.53734V8.9302C3.82164 9.05328 3.87053 9.17135 3.95757 9.25836C4.0446 9.34541 4.16264 9.3943 4.28573 9.3943H6.14326C6.26635 9.39435 6.38437 9.44323 6.47142 9.53024C6.55843 9.6173 6.60736 9.73532 6.60736 9.8584V11.716C6.60736 11.839 6.55847 11.9571 6.47142 12.0441C6.38437 12.1311 6.26635 12.1801 6.14326 12.1801H4.28573C4.16264 12.1801 4.0446 12.1311 3.95757 12.0441C3.87053 11.9571 3.82164 11.839 3.82163 11.716Z" fill="black"/>
<path d="M11.7145 12.1759H9.85698C9.7339 12.1759 9.61583 12.2248 9.52882 12.3118C9.44177 12.3989 9.39288 12.5169 9.39288 12.64V14.0334C9.39288 14.1565 9.34394 14.2746 9.25694 14.3616C9.16988 14.4486 9.05186 14.4975 8.92873 14.4975H7.53588C7.41279 14.4975 7.29477 14.4486 7.20772 14.3616C7.12071 14.2746 7.07178 14.1565 7.07178 14.0334V12.64C7.07178 12.5169 7.12071 12.3989 7.20772 12.3118C7.29477 12.2248 7.41279 12.1759 7.53588 12.1759H8.92873C9.05186 12.1759 9.16988 12.127 9.25694 12.04C9.34394 11.9529 9.39288 11.8349 9.39288 11.7118V9.85428C9.39288 9.7312 9.44177 9.61313 9.52882 9.52608C9.61583 9.43907 9.7339 9.39014 9.85698 9.39014H11.7145C11.8376 9.39014 11.9556 9.43907 12.0427 9.52608C12.1297 9.61313 12.1786 9.73115 12.1786 9.85424V11.7118C12.1786 11.8349 12.1297 11.9529 12.0427 12.04C11.9556 12.127 11.8376 12.1759 11.7145 12.1759Z" fill="black"/>
<path d="M10.427 4.85131C10.1574 5.2161 9.61822 5.2161 9.39355 5.2161C9.61822 5.2161 10.1574 5.28906 10.427 5.58089C10.6966 5.87273 10.7714 6.30494 10.7864 6.60896C10.7864 6.37793 10.9171 5.82853 11.1459 5.58089C11.4154 5.28906 11.9546 5.2161 12.1793 5.2161C11.9546 5.2161 11.4154 5.2161 11.1459 4.85131C10.8943 4.51093 10.8512 4.09076 10.8212 3.82324C10.7913 4.09076 10.6681 4.52502 10.427 4.85131Z" fill="black" stroke="black" stroke-width="1.2" stroke-linejoin="round"/>
<path d="M13.0991 7.49674C12.9194 7.76695 12.5599 7.76695 12.4102 7.76695C12.5599 7.76695 12.9194 7.82099 13.0991 8.03716C13.2788 8.25334 13.3287 8.47034 13.3387 8.69552C13.3387 8.52439 13.4259 8.2206 13.5783 8.03716C13.7581 7.82099 14.1175 7.76695 14.2673 7.76695C14.1175 7.76695 13.7581 7.76695 13.5783 7.49674C13.4106 7.24458 13.3587 7.03654 13.3387 6.83838C13.3188 7.03654 13.2598 7.25503 13.0991 7.49674Z" fill="black" stroke="black" stroke-width="0.6" stroke-linejoin="round"/>
</g>
<defs>
<clipPath id="clip0_528_1325">
<rect width="13" height="13" fill="white" transform="translate(1.5 1.5)"/>
</clipPath>
</defs>
</svg>
