<svg width="16" height="16" viewBox="0 0 16 16" fill="none" xmlns="http://www.w3.org/2000/svg">
<path fill-rule="evenodd" clip-rule="evenodd" d="M6.28618 4.14306H4.57161C4.45799 4.14307 4.34904 4.1882 4.2687 4.26854C4.18836 4.34888 4.14322 4.45783 4.14321 4.57145V6.28604C4.14323 6.39965 4.18836 6.50861 4.2687 6.58894C4.34904 6.66928 4.45799 6.71441 4.57161 6.71442H6.28618C6.39979 6.71441 6.50875 6.66927 6.58908 6.58893C6.66942 6.50859 6.71455 6.39963 6.71455 6.28601V4.57145C6.71456 4.45783 6.75969 4.34888 6.84003 4.26854C6.92037 4.1882 7.02932 4.14307 7.14293 4.14306H8.42862C8.54223 4.14305 8.65119 4.09792 8.73152 4.01758C8.81186 3.93725 8.85699 3.82829 8.857 3.71468V2.42851C8.85699 2.31489 8.81186 2.20594 8.73152 2.1256C8.65119 2.04526 8.54223 2.00013 8.42862 2.00012H7.14293C7.02932 2.00013 6.92037 2.04526 6.84003 2.1256C6.75969 2.20594 6.71456 2.31489 6.71455 2.42851V3.71468C6.71454 3.82829 6.66941 3.93724 6.58908 4.01758C6.50874 4.09792 6.39979 4.14305 6.28618 4.14306ZM4.14319 9.7133V11.4279C4.1432 11.5415 4.18833 11.6504 4.26867 11.7308C4.349 11.8111 4.45796 11.8563 4.57157 11.8563H6.28613C6.39975 11.8563 6.5087 11.8111 6.58904 11.7308C6.66938 11.6504 6.71451 11.5415 6.71452 11.4279V9.7133C6.71451 9.59969 6.66937 9.49074 6.58903 9.41041C6.5087 9.33007 6.39974 9.28494 6.28613 9.28493H4.57157C4.45796 9.28492 4.349 9.23979 4.26867 9.15945C4.18833 9.07911 4.1432 8.97016 4.14319 8.85655V7.57088C4.14318 7.45727 4.09804 7.34832 4.01771 7.26798C3.93737 7.18764 3.82842 7.1425 3.71481 7.14249H2.42862C2.31501 7.1425 2.20605 7.18764 2.12572 7.26798C2.04539 7.34832 2.00025 7.45727 2.00024 7.57088V8.85655C2.00025 8.97016 2.04539 9.07911 2.12572 9.15945C2.20605 9.23978 2.31501 9.28492 2.42862 9.28493H3.71481C3.82842 9.28494 3.93737 9.33007 4.0177 9.41041C4.09804 9.49074 4.14318 9.59969 4.14319 9.7133ZM11.4288 11.8563H9.71423C9.60062 11.8563 9.49166 11.9015 9.41133 11.9818C9.33099 12.0621 9.28586 12.1711 9.28585 12.2847V13.5709C9.28584 13.6845 9.24071 13.7935 9.16037 13.8738C9.08003 13.9541 8.97107 13.9993 8.85746 13.9993H7.57179C7.45818 13.9993 7.34923 13.9541 7.26889 13.8738C7.18855 13.7935 7.14342 13.6845 7.14341 13.5709V12.2847C7.14342 12.1711 7.18855 12.0621 7.26889 11.9818C7.34923 11.9015 7.45818 11.8563 7.57179 11.8563H8.85746C8.97107 11.8563 9.08003 11.8112 9.16037 11.7308C9.24071 11.6505 9.28584 11.5416 9.28585 11.4279V9.71338C9.28585 9.59976 9.33099 9.4908 9.41132 9.41046C9.49166 9.33012 9.60061 9.28499 9.71423 9.28498H11.4288C11.5424 9.28498 11.6514 9.33012 11.7317 9.41045C11.812 9.49078 11.8572 9.59974 11.8572 9.71335V11.4279C11.8572 11.5415 11.812 11.6505 11.7317 11.7308C11.6514 11.8112 11.5424 11.8563 11.4288 11.8563ZM11.8567 6.28556V4.571C11.8567 4.45738 11.8116 4.34843 11.7312 4.26809C11.6509 4.18775 11.5419 4.14262 11.4283 4.14261H9.71374C9.60013 4.14262 9.49117 4.18776 9.41084 4.26809C9.3305 4.34843 9.28536 4.45739 9.28535 4.571V6.28556C9.28537 6.39918 9.33051 6.50814 9.41085 6.58847C9.49119 6.6688 9.60015 6.71394 9.71377 6.71394H11.4283C11.5419 6.71395 11.6509 6.75908 11.7312 6.83942C11.8116 6.91975 11.8567 7.02871 11.8567 7.14232V8.42799C11.8567 8.5416 11.9019 8.65056 11.9822 8.7309C12.0625 8.81123 12.1715 8.85637 12.2851 8.85638H13.5713C13.6849 8.85637 13.7938 8.81123 13.8742 8.7309C13.9545 8.65056 13.9997 8.5416 13.9997 8.42799V7.14232C13.9997 7.02871 13.9545 6.91975 13.8742 6.83942C13.7938 6.75908 13.6849 6.71395 13.5713 6.71394H12.2851C12.1715 6.71393 12.0625 6.6688 11.9822 6.58846C11.9019 6.50813 11.8567 6.39917 11.8567 6.28556Z" fill="black"/>
</svg>
