<svg width="16" height="16" viewBox="0 0 16 16" fill="none" xmlns="http://www.w3.org/2000/svg">
<path d="M7.8125 3V4.40613" stroke="black" stroke-width="1.3" stroke-linecap="round" stroke-linejoin="round"/>
<path d="M7.8125 11.4353L7.81395 13.2433" stroke="black" stroke-width="1.3" stroke-linecap="round" stroke-linejoin="round"/>
<path d="M5.51187 11.4381H8.86684C9.333 11.4381 9.78007 11.2529 10.1097 10.9233C10.4393 10.5937 10.6245 10.1466 10.6245 9.68044C10.6245 9.21428 10.4393 8.76721 10.1097 8.43759C9.78007 8.10796 9.333 7.92278 8.86684 7.92278H6.75766C6.2915 7.92278 5.84443 7.7376 5.51481 7.40798C5.18518 7.07835 5 6.63129 5 6.16513C5 5.69897 5.18518 5.2519 5.51481 4.92228C5.84443 4.59265 6.2915 4.40747 6.75766 4.40747H9.92144" stroke="black" stroke-width="1.3" stroke-linecap="round" stroke-linejoin="round"/>
</svg>
