<svg width="16" height="16" viewBox="0 0 16 16" fill="none" xmlns="http://www.w3.org/2000/svg">
<path d="M5.75 6.8999C6.44036 6.8999 7 6.34026 7 5.6499C7 4.95954 6.44036 4.3999 5.75 4.3999C5.05964 4.3999 4.5 4.95954 4.5 5.6499C4.5 6.34026 5.05964 6.8999 5.75 6.8999Z" fill="black"/>
<path d="M10.25 6.8999C10.9404 6.8999 11.5 6.34026 11.5 5.6499C11.5 4.95954 10.9404 4.3999 10.25 4.3999C9.5596 4.3999 9 4.95954 9 5.6499C9 6.34026 9.5596 6.8999 10.25 6.8999Z" fill="black"/>
<path d="M5.75 11.6499C6.44036 11.6499 7 11.0903 7 10.3999C7 9.70954 6.44036 9.1499 5.75 9.1499C5.05964 9.1499 4.5 9.70954 4.5 10.3999C4.5 11.0903 5.05964 11.6499 5.75 11.6499Z" fill="black"/>
<path d="M10.25 11.6499C10.9404 11.6499 11.5 11.0903 11.5 10.3999C11.5 9.70954 10.9404 9.1499 10.25 9.1499C9.5596 9.1499 9 9.70954 9 10.3999C9 11.0903 9.5596 11.6499 10.25 11.6499Z" fill="black"/>
</svg>
