<svg width="16" height="16" viewBox="0 0 16 16" fill="none" xmlns="http://www.w3.org/2000/svg">
<path d="M9.60131 6.49988C9.60131 6.19801 9.60131 5.89572 9.60131 5.59974C9.60131 4.47974 9.60131 3.91974 9.38332 3.49192C9.19158 3.1156 8.88561 2.80964 8.50929 2.61789C8.08147 2.3999 7.52141 2.3999 6.40131 2.3999H4.8001C3.67999 2.3999 3.11994 2.3999 2.69212 2.61789C2.31579 2.80964 2.00983 3.1156 1.81808 3.49192C1.6001 3.91974 1.6001 4.47957 1.6001 5.59921C1.6001 6.12556 1.6001 6.67189 1.6001 7.20032C1.6001 8.32015 1.6001 8.88006 1.81808 9.30788C2.00983 9.68421 2.31579 9.99017 2.69212 10.1819C3.11994 10.3999 3.67999 10.3999 4.8001 10.3999H6.5" stroke="black" stroke-width="1.2"/>
<path d="M11.2011 6.3999H9.5999C8.4798 6.3999 7.91974 6.3999 7.49192 6.61789C7.1156 6.80964 6.80964 7.1156 6.61789 7.49192C6.3999 7.91974 6.3999 8.47957 6.3999 9.59921V11.2003C6.3999 12.3201 6.3999 12.8801 6.61789 13.3079C6.80964 13.6842 7.1156 13.9902 7.49192 14.1819C7.91974 14.3999 8.4798 14.3999 9.5999 14.3999H11.2011C12.3212 14.3999 12.8813 14.3999 13.3091 14.1819C13.6854 13.9902 13.9914 13.6842 14.1831 13.3079C14.4011 12.8801 14.4011 12.3201 14.4011 11.2003V9.59921C14.4011 8.47957 14.4011 7.91974 14.1831 7.49192C13.9914 7.1156 13.6854 6.80964 13.3091 6.61789C12.8813 6.3999 12.3212 6.3999 11.2011 6.3999Z" fill="black" fill-opacity="0.1" stroke="black" stroke-width="1.2"/>
</svg>
