<svg width="16" height="16" viewBox="0 0 16 16" fill="none" xmlns="http://www.w3.org/2000/svg">
<path d="M3.7998 7C3.2498 7 2.7998 7.45 2.7998 8C2.7998 8.55 3.2498 9 3.7998 9C4.3498 9 4.7998 8.55 4.7998 8C4.7998 7.45 4.3498 7 3.7998 7ZM12.1998 7C11.6498 7 11.1998 7.45 11.1998 8C11.1998 8.55 11.6498 9 12.1998 9C12.7498 9 13.1998 8.55 13.1998 8C13.1998 7.45 12.7498 7 12.1998 7ZM7.9998 7C7.4498 7 6.9998 7.45 6.9998 8C6.9998 8.55 7.4498 9 7.9998 9C8.5498 9 8.9998 8.55 8.9998 8C8.9998 7.45 8.5498 7 7.9998 7Z" fill="black"/>
</svg>
