<svg width="16" height="16" viewBox="0 0 16 16" fill="none" xmlns="http://www.w3.org/2000/svg">
<path d="M9.67624 12.7425C9.17063 12.9095 8.62949 13 8.06693 13C5.26854 13 3 10.7614 3 8C3 5.23858 5.26854 3 8.06693 3C10.4655 3 12.4748 4.64457 13 6.85336" stroke="black" stroke-width="1.2" stroke-linecap="round" stroke-linejoin="round"/>
<path d="M12.2998 9V12" stroke="black" stroke-linecap="round" stroke-linejoin="round"/>
<path d="M13.7998 10.5H10.7998" stroke="black" stroke-linecap="round" stroke-linejoin="round"/>
<path d="M6.5 9C6.5 9 6.66667 10 8 10C9.33333 10 9.5 9 9.5 9" stroke="black" stroke-linecap="round" stroke-linejoin="round"/>
<path d="M7.0998 6.9835C7.0998 7.34248 6.80879 7.6335 6.4498 7.6335C6.09082 7.6335 5.7998 7.34248 5.7998 6.9835C5.7998 6.62451 6.09082 6.3335 6.4498 6.3335C6.80879 6.3335 7.0998 6.62451 7.0998 6.9835Z" fill="black"/>
<path d="M10.3 6.9835C10.3 7.34248 10.009 7.6335 9.65 7.6335C9.29101 7.6335 9 7.34248 9 6.9835C9 6.62451 9.29101 6.3335 9.65 6.3335C10.009 6.3335 10.3 6.62451 10.3 6.9835Z" fill="black"/>
</svg>
