<svg width="16" height="16" viewBox="0 0 16 16" fill="none" xmlns="http://www.w3.org/2000/svg">
<path d="M3.1665 4.2002C2.89036 4.2002 2.6665 4.46883 2.6665 4.8002C2.6665 5.13156 2.89036 5.4002 3.1665 5.4002V4.2002ZM12.8332 5.4002C13.1093 5.4002 13.3332 5.13156 13.3332 4.8002C13.3332 4.46883 13.1093 4.2002 12.8332 4.2002V5.4002ZM3.1665 5.4002H12.8332V4.2002H3.1665V5.4002Z" fill="black"/>
<path d="M4.5 7.3999C4.22386 7.3999 4 7.66854 4 7.9999C4 8.33126 4.22386 8.5999 4.5 8.5999V7.3999ZM11.5 8.5999C11.7761 8.5999 12 8.33126 12 7.9999C12 7.66854 11.7761 7.3999 11.5 7.3999V8.5999ZM4.5 8.5999H11.5V7.3999H4.5V8.5999Z" fill="black"/>
<path d="M5.8335 10.6001C5.55736 10.6001 5.3335 10.8687 5.3335 11.2001C5.3335 11.5315 5.55736 11.8001 5.8335 11.8001V10.6001ZM10.1668 11.8001C10.443 11.8001 10.6668 11.5315 10.6668 11.2001C10.6668 10.8687 10.443 10.6001 10.1668 10.6001V11.8001ZM5.8335 11.8001H10.1668V10.6001H5.8335V11.8001Z" fill="black"/>
</svg>
