<svg width="16" height="16" viewBox="0 0 16 16" fill="none" xmlns="http://www.w3.org/2000/svg">
<path d="M10.6668 8H3.55566L5.33344 12H12.889L10.6668 8Z" fill="black" fill-opacity="0.1"/>
<path d="M12.8332 12.1666V12.6666C13.1093 12.6666 13.3332 12.4427 13.3332 12.1666H12.8332ZM6.6665 3.83325L7.0825 3.5559C6.98977 3.41681 6.8337 3.33325 6.6665 3.33325V3.83325ZM7.80191 5.53639L8.21797 5.25903L7.80191 5.53639ZM10.8332 7.83325L11.2872 7.62372C11.2054 7.44665 11.0282 7.33325 10.8332 7.33325V7.83325ZM3.1665 7.83325V7.33325C2.99599 7.33325 2.83724 7.42012 2.74534 7.56379C2.65344 7.70739 2.64107 7.88799 2.71252 8.04279L3.1665 7.83325ZM4.809 11.392L4.35503 11.6015L4.809 11.392ZM3.33317 6.16659C3.33317 6.44273 3.55703 6.66659 3.83317 6.66659C4.10931 6.66659 4.33317 6.44273 4.33317 6.16659H3.33317ZM12.8332 11.6666H6.01961V12.6666H12.8332V11.6666ZM4.49984 4.33325H6.6665V3.33325H4.49984V4.33325ZM6.25048 4.11061L7.3859 5.81374L8.21797 5.25903L7.0825 3.5559L6.25048 4.11061ZM8.35664 6.33325H12.1665V5.33325H8.35664V6.33325ZM13.2872 11.9571L11.2872 7.62372L10.3792 8.04279L12.3792 12.3761L13.2872 11.9571ZM10.8332 7.33325H3.1665V8.33325H10.8332V7.33325ZM2.71252 8.04279L4.35503 11.6015L5.26298 11.1825L3.62049 7.62372L2.71252 8.04279ZM3.33317 4.49992V6.16659H4.33317V4.49992H3.33317ZM12.3332 6.49992V12.1666H13.3332V6.49992H12.3332ZM12.1665 6.33325C12.2586 6.33325 12.3332 6.40787 12.3332 6.49992H13.3332C13.3332 5.85559 12.8108 5.33325 12.1665 5.33325V6.33325ZM4.49984 3.33325C3.8555 3.33325 3.33317 3.85559 3.33317 4.49992H4.33317C4.33317 4.40787 4.40779 4.33325 4.49984 4.33325V3.33325ZM7.3859 5.81374C7.6023 6.1383 7.96657 6.33325 8.35664 6.33325V5.33325C8.30091 5.33325 8.24884 5.3054 8.21797 5.25903L7.3859 5.81374ZM6.01961 11.6666C5.69457 11.6666 5.39919 11.4776 5.26298 11.1825L4.35503 11.6015C4.65469 12.2508 5.30452 12.6666 6.01961 12.6666V11.6666Z" fill="black"/>
</svg>
