<svg width="16" height="16" viewBox="0 0 16 16" fill="none" xmlns="http://www.w3.org/2000/svg">
<path d="M13.5 5.67139H2.5C2.22386 5.67139 2 5.89524 2 6.17139V8.17139C2 8.44753 2.22386 8.67139 2.5 8.67139H13.5C13.7761 8.67139 14 8.44753 14 8.17139V6.17139C14 5.89524 13.7761 5.67139 13.5 5.67139Z" fill="black" fill-opacity="0.1" stroke="black" stroke-width="1.2" stroke-linecap="round" stroke-linejoin="round"/>
<path d="M13 8.67139V13.1714C13 13.304 12.9473 13.4312 12.8536 13.5249C12.7598 13.6187 12.6326 13.6714 12.5 13.6714H3.5C3.36739 13.6714 3.24021 13.6187 3.14645 13.5249C3.05268 13.4312 3 13.304 3 13.1714V8.67139" fill="black" fill-opacity="0.1" stroke="black" stroke-width="1.2" stroke-linecap="round" stroke-linejoin="round"/>
<path d="M8 5.67139V13.6714" stroke="black" stroke-width="1.2" stroke-linecap="round" stroke-linejoin="round"/>
<path d="M10.8313 4.965C10.1188 5.67125 8 5.67125 8 5.67125C8 5.67125 8 3.5525 8.70625 2.84C8.98804 2.55821 9.37024 2.3999 9.76875 2.3999C10.1673 2.3999 10.5495 2.55821 10.8313 2.84C11.113 3.1218 11.2714 3.50399 11.2714 3.9025C11.2714 4.30102 11.113 4.68321 10.8313 4.965V4.965Z" stroke="black" stroke-width="1.2" stroke-linecap="round" stroke-linejoin="round"/>
<path d="M5.16862 4.965C5.88112 5.67125 7.99987 5.67125 7.99987 5.67125C7.99987 5.67125 7.99987 3.5525 7.29362 2.84C7.01182 2.55821 6.62963 2.3999 6.23112 2.3999C5.8326 2.3999 5.45041 2.55821 5.16862 2.84C4.88682 3.1218 4.72852 3.50399 4.72852 3.9025C4.72852 4.30102 4.88682 4.68321 5.16862 4.965V4.965Z" stroke="black" stroke-width="1.2" stroke-linecap="round" stroke-linejoin="round"/>
</svg>
