<svg width="16" height="16" viewBox="0 0 16 16" fill="none" xmlns="http://www.w3.org/2000/svg">
<path d="M6.5 4.75C6.5 5.7165 5.7165 6.5 4.75 6.5C3.7835 6.5 3 5.7165 3 4.75C3 3.7835 3.7835 3 4.75 3C5.7165 3 6.5 3.7835 6.5 4.75Z" stroke="black" stroke-width="1.2"/>
<path d="M13 4.75C13 5.7165 12.2165 6.5 11.25 6.5C10.2835 6.5 9.5 5.7165 9.5 4.75C9.5 3.7835 10.2835 3 11.25 3C12.2165 3 13 3.7835 13 4.75Z" stroke="black" stroke-width="1.2"/>
<path d="M4.7998 6.5V9.9" stroke="black" stroke-width="1.2"/>
<path d="M7.1665 8.6698H10.0742C10.7879 8.6698 11.3665 8.06093 11.3665 7.3098V6.7998" stroke="black" stroke-width="1.2" stroke-linecap="round" stroke-linejoin="round"/>
<path d="M6.5 11.25C6.5 12.2165 5.7165 13 4.75 13C3.7835 13 3 12.2165 3 11.25C3 10.2835 3.7835 9.5 4.75 9.5C5.7165 9.5 6.5 10.2835 6.5 11.25Z" stroke="black" stroke-width="1.2"/>
</svg>
