<svg width="16" height="16" viewBox="0 0 16 16" fill="none" xmlns="http://www.w3.org/2000/svg">
<path d="M8 13.25C10.8995 13.25 13.25 10.8995 13.25 8C13.25 5.1005 10.8995 2.75 8 2.75C5.1005 2.75 2.75 5.1005 2.75 8C2.75 10.8995 5.1005 13.25 8 13.25Z" fill="black" fill-opacity="0.1" stroke="black" stroke-linecap="round" stroke-linejoin="round"/>
<path d="M10.625 8C10.625 11.2586 9.00364 13.25 8 13.25C6.99636 13.25 5.375 11.2586 5.375 8C5.375 4.74138 6.99636 2.75 8 2.75C9.00364 2.75 10.625 4.74138 10.625 8Z" stroke="black" stroke-linecap="round" stroke-linejoin="round"/>
<path d="M2.75 8H8H13.25" fill="black" fill-opacity="0.1"/>
<path d="M2.75 8H8H13.25" stroke="black" stroke-linecap="round" stroke-linejoin="round"/>
</svg>
