<svg width="16" height="16" viewBox="0 0 16 16" fill="none" xmlns="http://www.w3.org/2000/svg">
<g clip-path="url(#clip0_528_1326)">
<path d="M13.7094 8.1313C13.7094 7.74728 13.6754 7.38269 13.6171 7.02783H8.12402V9.22019H11.2692C11.1282 9.93964 10.715 10.5473 10.1025 10.9605V12.4188H11.9789C13.0775 11.4028 13.7094 9.90561 13.7094 8.1313Z" fill="#4285F4"/>
<path d="M8.12373 13.8329C9.69873 13.8329 11.0161 13.3079 11.9786 12.4183L10.1022 10.96C9.5772 11.31 8.91123 11.5239 8.12373 11.5239C6.6022 11.5239 5.31401 10.4982 4.8522 9.11279H2.91748V10.6149C3.87512 12.5204 5.84387 13.8329 8.12373 13.8329Z" fill="#34A853"/>
<path d="M4.85233 9.11324C4.73081 8.76324 4.66761 8.38893 4.66761 8.00004C4.66761 7.61115 4.73567 7.23685 4.85233 6.88685V5.38477H2.91761C2.519 6.17227 2.29053 7.05699 2.29053 8.00004C2.29053 8.9431 2.519 9.82782 2.91761 10.6153L4.85233 9.11324Z" fill="#FBBC05"/>
<path d="M8.12373 4.47553C8.98415 4.47553 9.7522 4.77206 10.3598 5.35053L12.0223 3.68803C11.0161 2.74498 9.69873 2.1665 8.12373 2.1665C5.84387 2.1665 3.87512 3.47901 2.91748 5.38456L4.8522 6.88664C5.31401 5.50123 6.6022 4.47553 8.12373 4.47553Z" fill="#EA4335"/>
</g>
<defs>
<clipPath id="clip0_528_1326">
<rect width="11.6667" height="11.6667" fill="white" transform="translate(2.1665 2.1665)"/>
</clipPath>
</defs>
</svg>
