<svg width="16" height="16" viewBox="0 0 16 16" fill="none" xmlns="http://www.w3.org/2000/svg">
<circle cx="12" cy="4" r="2" fill="black" fill-opacity="0.1"/>
<path fill-rule="evenodd" clip-rule="evenodd" d="M5.33356 8.00023C5.33356 8.88388 4.61722 9.60023 3.73356 9.60023C2.8499 9.60023 2.13356 8.88388 2.13356 8.00023C2.13356 7.11657 2.8499 6.40023 3.73356 6.40023C4.61722 6.40023 5.33356 7.11657 5.33356 8.00023ZM6.09423 9.24167C5.64764 10.0891 4.75807 10.6669 3.73356 10.6669C2.2608 10.6669 1.06689 9.47299 1.06689 8.00023C1.06689 6.52746 2.2608 5.33356 3.73356 5.33356C4.75807 5.33356 5.64764 5.91131 6.09423 6.75877L9.71142 4.49802C9.63909 4.25585 9.60023 3.99925 9.60023 3.73356C9.60023 2.2608 10.7941 1.06689 12.2669 1.06689C13.7396 1.06689 14.9336 2.2608 14.9336 3.73356C14.9336 5.20632 13.7396 6.40023 12.2669 6.40023C11.4045 6.40023 10.6377 5.99085 10.1503 5.35582L6.38455 7.7094C6.39492 7.80491 6.40023 7.90195 6.40023 8.00023C6.40023 8.0985 6.39492 8.19552 6.38455 8.29104L10.1503 10.6446C10.6377 10.0096 11.4045 9.60023 12.2669 9.60023C13.7396 9.60023 14.9336 10.7941 14.9336 12.2669C14.9336 13.7396 13.7396 14.9335 12.2669 14.9335C10.7941 14.9335 9.60023 13.7396 9.60023 12.2669C9.60023 12.0012 9.63909 11.7446 9.71143 11.5024L6.09423 9.24167ZM12.2669 5.33356C13.1505 5.33356 13.8669 4.61722 13.8669 3.73356C13.8669 2.8499 13.1505 2.13356 12.2669 2.13356C11.3833 2.13356 10.6669 2.8499 10.6669 3.73356C10.6669 4.61722 11.3833 5.33356 12.2669 5.33356ZM13.8669 12.2669C13.8669 13.1506 13.1505 13.8669 12.2669 13.8669C11.3833 13.8669 10.6669 13.1506 10.6669 12.2669C10.6669 11.3832 11.3833 10.6669 12.2669 10.6669C13.1505 10.6669 13.8669 11.3832 13.8669 12.2669Z" fill="black"/>
</svg>
