<svg width="16" height="16" viewBox="0 0 16 16" fill="none" xmlns="http://www.w3.org/2000/svg">
<path d="M4.55171 10.9438C3.42213 9.84089 3 8.40787 3 8.00001C3 7.31036 4.20689 3.6897 7.99996 3.6897C9.23767 3.6897 10.2 4.07523 10.935 4.61864M12.5687 6.62071C12.8721 7.24043 12.9999 7.77553 12.9999 8.00001C12.9999 8.68966 11.793 12.3103 7.99996 12.3103C7.49555 12.3103 7.03686 12.2463 6.62066 12.1336L12.5687 6.62071Z" stroke="black" stroke-width="1.2" stroke-linecap="round" stroke-linejoin="round"/>
<path d="M12.9999 3L3 12.9999" stroke="black" stroke-width="1.2" stroke-linecap="round" stroke-linejoin="round"/>
<path d="M6.90272 9.0972C6.29675 8.49121 6.29675 7.50873 6.90272 6.90274C7.50872 6.29674 8.49119 6.29674 9.09719 6.90274" stroke="black" stroke-width="1.03447" stroke-linecap="round" stroke-linejoin="round"/>
</svg>
