<svg width="16" height="16" viewBox="0 0 16 16" fill="none" xmlns="http://www.w3.org/2000/svg">
<path d="M2 12V4C2 2.89543 2.89543 2 4 2H12C13.1046 2 14 2.89543 14 4V12C14 13.1046 13.1046 14 12 14H4C2.89543 14 2 13.1046 2 12Z" stroke="black" stroke-width="1.2"/>
<path d="M4.27271 8.22403L2 11.2162V12.2869C2 13.233 2.74105 14 3.65517 14H12.3448C13.259 14 14 13.233 14 12.2869L13.7931 8.00415L11.795 5.5968C11.1169 4.77994 9.88814 4.80578 9.24246 5.64879L9.23426 5.65973L9.21875 5.68049C9.05701 5.89689 7.92459 7.41211 7.10209 8.49493L6.82946 8.16647C6.14996 7.34778 4.91716 7.37553 4.27271 8.22403Z" fill="black" fill-opacity="0.1"/>
<path d="M8.82759 10.5738L6.82946 8.16647C6.14996 7.34778 4.91716 7.37553 4.27271 8.22403L2 11.2162V12.2869C2 13.233 2.74105 14 3.65517 14H12.3448C13.259 14 14 13.233 14 12.2869L13.7931 8.00415L11.795 5.5968C11.1169 4.77994 9.88814 4.80578 9.24246 5.64879C9.23964 5.65248 9.23699 5.656 9.23426 5.65973C9.15639 5.76389 7.96044 7.36491 7.10207 8.49496" stroke="black" stroke-width="1.2" stroke-linecap="round" stroke-linejoin="round"/>
</svg>
