<svg width="16" height="16" viewBox="0 0 16 16" fill="none" xmlns="http://www.w3.org/2000/svg">
<path d="M8 2C4.68629 2 2 4.68629 2 8C2 11.3137 4.68629 14 8 14C11.3137 14 14 11.3137 14 8C14 4.68629 11.3137 2 8 2Z" stroke="black" stroke-width="1.2" stroke-linecap="round" stroke-linejoin="round"/>
<path fill-rule="evenodd" clip-rule="evenodd" d="M8.00023 11.4839C7.543 11.4839 7.17234 11.1132 7.17234 10.656L7.17234 9.00021C7.17234 8.54297 7.543 8.17231 8.00023 8.17231C8.45746 8.17231 8.82813 8.54297 8.82813 9.00021L8.82813 10.656C8.82813 11.1132 8.45746 11.4839 8.00023 11.4839Z" fill="black"/>
<path fill-rule="evenodd" clip-rule="evenodd" d="M7.17234 5.68871C7.17234 5.23147 7.543 4.86081 8.00023 4.86081C8.45746 4.86081 8.82813 5.23147 8.82813 5.68871C8.82813 6.14594 8.45746 6.5166 8.00023 6.5166C7.543 6.5166 7.17234 6.14594 7.17234 5.68871Z" fill="black"/>
</svg>
