<svg width="16" height="16" viewBox="0 0 16 16" fill="none" xmlns="http://www.w3.org/2000/svg">
<path d="M10.0689 8.86245C11.6878 8.86245 13.0002 7.55009 13.0002 5.93123C13.0002 4.31235 11.6878 3 10.0689 3C8.45007 3 7.13771 4.31235 7.13771 5.93123C7.13771 6.14512 7.16061 6.35365 7.20413 6.55452L2.99951 10.7591V13.0007H5.24104L5.75831 12.4834V11.2764H6.96529L7.82741 10.4143V9.2073H9.03439L9.44566 8.79603C9.6465 8.83955 9.85506 8.86245 10.0689 8.86245Z" fill="black" fill-opacity="0.1" stroke="black" stroke-linecap="round" stroke-linejoin="round"/>
<path d="M11.1038 5.24133C11.1038 5.43179 10.9493 5.58618 10.7589 5.58618C10.5685 5.58618 10.4141 5.43179 10.4141 5.24133C10.4141 5.05088 10.5685 4.89648 10.7589 4.89648C10.9493 4.89648 11.1038 5.05088 11.1038 5.24133Z" stroke="black"/>
</svg>
