<svg width="16" height="16" viewBox="0 0 16 16" fill="none" xmlns="http://www.w3.org/2000/svg">
<path d="M6.93262 8.53436C7.16166 8.84056 7.45387 9.09392 7.78944 9.27726C8.12501 9.46059 8.49609 9.56962 8.8775 9.59693C9.25891 9.62425 9.64173 9.56922 10 9.43557C10.3583 9.30193 10.6836 9.09279 10.954 8.82236L12.554 7.22236C13.0397 6.71942 13.3085 6.04581 13.3024 5.34662C13.2963 4.64743 13.0159 3.9786 12.5215 3.48417C12.027 2.98975 11.3582 2.7093 10.659 2.70323C9.95983 2.69715 9.28622 2.96594 8.78328 3.45169L7.86595 4.36369" stroke="black" stroke-width="1.3" stroke-linecap="round" stroke-linejoin="round"/>
<path d="M9.06521 7.46636C8.83617 7.16016 8.54395 6.9068 8.20838 6.72346C7.87281 6.54013 7.50174 6.4311 7.12033 6.40379C6.73892 6.37647 6.3561 6.4315 5.99783 6.56515C5.63956 6.69879 5.31422 6.90793 5.04388 7.17836L3.44388 8.77836C2.95812 9.2813 2.68934 9.95491 2.69541 10.6541C2.70149 11.3533 2.98194 12.0221 3.47636 12.5165C3.97078 13.011 4.63962 13.2914 5.33881 13.2975C6.038 13.3036 6.7116 13.0348 7.21454 12.549L8.12654 11.637" stroke="black" stroke-width="1.3" stroke-linecap="round" stroke-linejoin="round"/>
</svg>
