<svg width="16" height="16" viewBox="0 0 16 16" fill="none" xmlns="http://www.w3.org/2000/svg">
<path d="M5.16688 6.99984V6.89497C5.16688 5.85415 5.10426 4.694 5.83119 3.9491C6.24574 3.5243 6.91655 3.1665 8.00021 3.1665C9.08388 3.1665 9.75468 3.5243 10.1692 3.9491C10.8961 4.694 10.8335 5.85415 10.8335 6.89497V6.99984" stroke="black" stroke-width="1.3" stroke-linecap="round" stroke-linejoin="round"/>
<path d="M3.83301 7.83317C3.83301 7.46497 4.13149 7.1665 4.49967 7.1665H11.4997C11.8679 7.1665 12.1663 7.46497 12.1663 7.83317V11.4998C12.1663 12.2362 11.5694 12.8332 10.833 12.8332H5.16634C4.42996 12.8332 3.83301 12.2362 3.83301 11.4998V7.83317Z" fill="black" fill-opacity="0.1" stroke="black" stroke-width="1.3" stroke-linecap="round" stroke-linejoin="round"/>
</svg>
