<svg width="16" height="16" viewBox="0 0 16 16" fill="none" xmlns="http://www.w3.org/2000/svg">
<path d="M2.55096 10.3155C2.55096 10.7 2.77714 10.9282 3.16488 10.9282C3.55724 10.9282 3.78342 10.7042 3.78342 10.3155V5.78169C3.78342 5.35493 3.48338 5.07183 3.03564 5.07183C2.77714 5.07183 2.51403 5.15634 2.18168 5.36338L1.35543 5.89155C1.12001 6.03521 1 6.19155 1 6.36901C1 6.60141 1.18925 6.77465 1.44313 6.77465C1.57699 6.77465 1.69239 6.73662 1.89088 6.61831L2.52326 6.20845H2.55096V10.3155Z" fill="black"/>
<path d="M5.18427 10.3662C5.18427 10.6746 5.44738 10.8775 5.85358 10.8775H8.96473C9.32939 10.8775 9.54634 10.7042 9.54634 10.4169C9.54634 10.1254 9.32478 9.94789 8.96473 9.94789H6.79985V9.89296L8.26773 8.45634C9.05705 7.69577 9.34324 7.21831 9.34324 6.63944C9.34324 5.68873 8.46621 5 7.2476 5C6.00129 5 5.11503 5.73944 5.11503 6.5C5.11503 6.7831 5.32736 6.98592 5.63663 6.98592C5.87666 6.98592 6.0336 6.87183 6.18131 6.60986C6.36134 6.1662 6.70753 5.92958 7.17836 5.92958C7.74612 5.92958 8.12925 6.25493 8.12925 6.73662C8.12925 7.09155 7.92614 7.41268 7.41839 7.90704L5.69664 9.60563C5.3089 9.96901 5.18427 10.1507 5.18427 10.3662Z" fill="black"/>
<path d="M10.4302 9.66056C10.4302 10.3577 11.3857 11 12.632 11C14.0214 11 15 10.2944 15 9.28451C15 8.55352 14.423 7.95352 13.6568 7.88592V7.81408C14.2938 7.72958 14.8061 7.15493 14.8061 6.52958C14.8061 5.62958 13.9106 5 12.6366 5C11.4319 5 10.5318 5.62113 10.5318 6.29718C10.5318 6.57183 10.7441 6.76197 11.0395 6.76197C11.2565 6.76197 11.418 6.67324 11.5565 6.46197C11.8011 6.08169 12.1566 5.88732 12.6136 5.88732C13.1998 5.88732 13.606 6.20423 13.606 6.66901C13.606 7.1338 13.1905 7.47183 12.6228 7.47183H12.1935C11.9119 7.47183 11.7134 7.66197 11.7134 7.91549C11.7134 8.17746 11.9165 8.36761 12.1935 8.36761H12.6459C13.3244 8.36761 13.7814 8.72254 13.7814 9.24648C13.7814 9.77042 13.3336 10.1127 12.6412 10.1127C12.1243 10.1127 11.7134 9.90563 11.4457 9.5169C11.2749 9.28873 11.1226 9.2 10.9195 9.2C10.6379 9.2 10.4302 9.39437 10.4302 9.66056Z" fill="black"/>
</svg>
