<svg width="16" height="16" viewBox="0 0 16 16" fill="none" xmlns="http://www.w3.org/2000/svg">
<path d="M13.4125 6.85697C13.5538 6.43279 13.6027 5.98338 13.5562 5.53875C13.5097 5.09413 13.3687 4.66459 13.1427 4.27885C12.8078 3.69542 12.2961 3.23349 11.6815 2.95972C11.067 2.68596 10.3814 2.61451 9.72357 2.75569C9.42687 2.42132 9.0622 2.15419 8.65389 1.97217C8.24559 1.79015 7.80314 1.69745 7.35613 1.70026C6.6836 1.69863 6.02793 1.91062 5.48364 2.30567C4.93935 2.70071 4.53459 3.25839 4.32768 3.89831C3.88957 3.988 3.47566 4.17024 3.11367 4.43284C2.75169 4.69544 2.44998 5.03233 2.22874 5.42098C1.89108 6.00281 1.74695 6.67682 1.81713 7.34588C1.88731 8.01491 2.16818 8.64434 2.61922 9.14343C2.47799 9.5676 2.429 10.017 2.47552 10.4616C2.52204 10.9063 2.66301 11.3358 2.88898 11.7215C3.22399 12.305 3.73567 12.7668 4.35021 13.0406C4.96474 13.3144 5.65037 13.3858 6.30815 13.2447C6.60485 13.5791 6.96956 13.8462 7.37783 14.0282C7.78613 14.2102 8.22858 14.3029 8.6756 14.3001C9.34847 14.3019 10.0045 14.0898 10.549 13.6945C11.0935 13.2992 11.4983 12.7411 11.705 12.1008C12.1432 12.0112 12.5571 11.8289 12.9191 11.5663C13.281 11.3037 13.5827 10.9668 13.804 10.5782C14.1412 9.99638 14.285 9.32253 14.2147 8.65376C14.1443 7.98498 13.8634 7.35583 13.4125 6.85697ZM8.67661 13.4764C8.12425 13.4772 7.58926 13.2838 7.16511 12.93C7.18423 12.9196 7.21778 12.9012 7.23964 12.8878L9.74843 11.4386C9.81139 11.4028 9.86368 11.3509 9.89991 11.2881C9.93617 11.2254 9.95503 11.1541 9.95459 11.0817V7.54477L11.015 8.15707C11.0206 8.15984 11.0253 8.16393 11.029 8.169C11.0326 8.17408 11.0348 8.17997 11.0356 8.18611V11.1152C11.0348 11.7408 10.7861 12.3406 10.3439 12.7832C9.90177 13.2258 9.3022 13.4751 8.67661 13.4764ZM3.60336 11.3097C3.3267 10.8317 3.22699 10.2716 3.32168 9.7274C3.34031 9.73859 3.37285 9.75846 3.3962 9.77188L5.90498 11.221C5.96751 11.2575 6.03864 11.2768 6.11106 11.2768C6.18344 11.2768 6.25457 11.2575 6.3171 11.221L9.38006 9.45244V10.677C9.38041 10.6833 9.37921 10.6895 9.37657 10.6952C9.37392 10.7009 9.36992 10.7058 9.36491 10.7096L6.82878 12.1739C6.28632 12.4863 5.64205 12.5708 5.03738 12.4087C4.43269 12.2467 3.91697 11.8515 3.60336 11.3097ZM2.94338 5.83281C3.21884 5.35413 3.65393 4.98766 4.17244 4.7975C4.17244 4.81911 4.1712 4.85738 4.1712 4.88393V7.78222C4.17075 7.8546 4.1896 7.92579 4.22579 7.98851C4.26198 8.05119 4.31421 8.10311 4.37712 8.13892L7.44007 9.90727L6.37969 10.5195C6.37446 10.523 6.36844 10.5251 6.36221 10.5256C6.35597 10.5262 6.34967 10.5252 6.3439 10.5228L3.80754 9.05724C3.26602 8.74363 2.87095 8.2281 2.70896 7.62364C2.54696 7.01922 2.63126 6.37521 2.94338 5.83281ZM11.6556 7.86021L8.59263 6.09164L9.65304 5.4796C9.65827 5.47616 9.66429 5.47405 9.67053 5.47349C9.67676 5.47292 9.68303 5.47393 9.6888 5.47638L12.2252 6.94066C12.6138 7.16513 12.9303 7.49563 13.1379 7.89351C13.3454 8.29138 13.4353 8.74013 13.397 9.18724C13.3587 9.63435 13.1938 10.0613 12.9217 10.4181C12.6495 10.7749 12.2814 11.0468 11.8603 11.2019C11.8603 11.18 11.8603 11.1418 11.8603 11.1152V8.21692C11.8609 8.14465 11.8422 8.07353 11.8063 8.01084C11.7703 7.94816 11.7183 7.89618 11.6556 7.86021ZM12.711 6.27173C12.6924 6.26029 12.6599 6.24067 12.6365 6.22728L10.1277 4.77812C10.0652 4.74165 9.99409 4.7224 9.92168 4.7224C9.84929 4.7224 9.77816 4.74165 9.71563 4.77812L6.65267 6.54672V5.32213C6.65232 5.31586 6.65352 5.30962 6.65616 5.30395C6.65881 5.29828 6.66281 5.29334 6.66782 5.28959L9.20395 3.82652C9.59247 3.60249 10.0368 3.49373 10.4849 3.51296C10.933 3.5322 11.3663 3.67864 11.7342 3.93515C12.1021 4.19165 12.3893 4.54762 12.5623 4.96142C12.7353 5.37521 12.7869 5.82969 12.711 6.27173ZM6.07616 8.45439L5.01549 7.8421C5.00994 7.83933 5.00512 7.83523 5.00153 7.83016C4.99794 7.82509 4.99564 7.8192 4.99489 7.81302V4.88393C4.99517 4.43532 5.12325 3.99607 5.3641 3.61759C5.60498 3.23911 5.94867 2.93707 6.35496 2.74683C6.76125 2.55658 7.21331 2.48601 7.65824 2.54336C8.10321 2.6007 8.5226 2.78361 8.86737 3.07066C8.84825 3.08109 8.81495 3.09947 8.79284 3.11289L6.28406 4.56202C6.22109 4.59781 6.16883 4.64972 6.13257 4.71241C6.09635 4.7751 6.07748 4.84632 6.07789 4.91871L6.07616 8.45439ZM6.65216 7.21241L8.01637 6.4245L9.38054 7.21191V8.78722L8.01637 9.57466L6.65216 8.78722V7.21241Z" fill="black"/>
</svg>
