<svg width="16" height="16" viewBox="0 0 16 16" fill="none" xmlns="http://www.w3.org/2000/svg">
<path d="M8 14C11.3137 14 14 11.3137 14 8C14 4.68629 11.3137 2 8 2C4.68629 2 2 4.68629 2 8C2 11.3137 4.68629 14 8 14Z" stroke="black" stroke-width="1.2" stroke-linecap="round" stroke-linejoin="round"/>
<path d="M6 6.03651C6.15674 5.59096 6.4661 5.21525 6.8733 4.97593C7.2805 4.73662 7.75926 4.64914 8.22478 4.72899C8.6903 4.80884 9.11254 5.05086 9.41672 5.4122C9.72089 5.77353 9.88737 6.23086 9.88667 6.70318C9.88667 8.03651 7.88667 8.70318 7.88667 8.70318" stroke="black" stroke-width="1.2" stroke-linecap="round" stroke-linejoin="round"/>
<path d="M7.93994 11H7.94577" stroke="black" stroke-width="1.2" stroke-linecap="round" stroke-linejoin="round"/>
</svg>
