<svg
  width="16"
  height="16"
  viewBox="0 0 16 16"
  fill="none"
  xmlns="http://www.w3.org/2000/svg"
>
  <path
    fillrule="evenodd"
    cliprule="evenodd"
    d="M7.73954 1.45944C7.90405 1.38022 8.09568 1.38022 8.2602 1.45944L12.9512 3.7185C13.1157 3.79773 13.2352 3.94756 13.2758 4.12557L14.4344 9.20164C14.475 9.37965 14.4324 9.56649 14.3185 9.70924L11.0723 13.7799C10.9584 13.9227 10.7858 14.0058 10.6032 14.0058H5.39656C5.21397 14.0058 5.04131 13.9227 4.92746 13.7799L1.6812 9.70924C1.56735 9.56649 1.52471 9.37965 1.56534 9.20164L2.72392 4.12557C2.76455 3.94756 2.88403 3.79773 3.04855 3.7185L7.73954 1.45944ZM3.82954 4.6743L2.79955 9.18696L5.68551 12.8058H10.3142L13.2002 9.18696L12.1702 4.6743L7.99987 2.66597L3.82954 4.6743Z"
    fill="black"
  />
  <path
    d="M8.5 4.5L9.30165 7.5L11.5 8L9.5 11.5L6.69833 10.7029L5.0752 8.66756V5.5L8.5 4.5Z"
    stroke="black"
    strokewidth="1.2"
    strokelinecap="round"
    strokelinejoin="round"
  />
</svg>
