<svg width="16" height="16" viewBox="0 0 16 16" fill="none" xmlns="http://www.w3.org/2000/svg">
<path d="M7.42057 13.3001H4.86196C4.05449 13.3001 3.3999 12.6456 3.3999 11.8381V4.16226C3.3999 3.35478 4.05449 2.7002 4.86196 2.7002H9.43091L12.5378 5.80708V7.4519" stroke="black" stroke-width="1.2" stroke-linecap="round" stroke-linejoin="round"/>
<path d="M12.3554 5.9897H9.24854V2.88281" stroke="black" stroke-width="1.2" stroke-linecap="round" stroke-linejoin="round"/>
<path d="M10.4261 13.4142C11.2437 14.1953 12.5693 14.1953 13.3868 13.4142C14.2044 12.6332 14.2044 11.3668 13.3868 10.5858C12.5693 9.80474 11.2437 9.80474 10.4261 10.5858C10.2431 10.7606 10.1011 10.9598 10 11.1724" stroke="black" stroke-linecap="round" stroke-linejoin="round"/>
<path d="M9.5 9.5L9.5 11.0556C9.5 11.301 9.69898 11.5 9.94444 11.5L11.5 11.5" stroke="black" stroke-linecap="round" stroke-linejoin="round"/>
</svg>
