<svg width="16" height="16" viewBox="0 0 16 16" fill="none" xmlns="http://www.w3.org/2000/svg">
<path d="M9.89655 7.48276C9.89655 8.24453 10.5141 8.86207 11.2759 8.86207H11.6207C12.3825 8.86207 13 8.24453 13 7.48276V7.43398C13 7.23884 12.9586 7.04591 12.8785 6.86796L11.4483 3.68966L10.018 6.86796C9.93796 7.04591 9.89655 7.23884 9.89655 7.43398V7.48276Z" fill="black" fill-opacity="0.1"/>
<path d="M3 7.48276C3 8.24453 3.61754 8.86207 4.37931 8.86207H4.72414C5.48591 8.86207 6.10345 8.24453 6.10345 7.48276V7.43398C6.10345 7.23884 6.06204 7.04591 5.98196 6.86796L4.55172 3.68966L3.12149 6.86796C3.04141 7.04591 3 7.23884 3 7.43398V7.48276Z" fill="black" fill-opacity="0.1"/>
<path d="M5.75862 12.6552C5.75862 11.8934 6.37616 11.2759 7.13793 11.2759H8.86207C9.62384 11.2759 10.2414 11.8934 10.2414 12.6552V13H5.75862V12.6552Z" fill="black" fill-opacity="0.1"/>
<path d="M8 11.2759V3.68966M8 3.68966V3M8 3.68966H3M8 3.68966H13M11.4483 3.68966L12.8785 6.86796C12.9586 7.04591 13 7.23884 13 7.43398V7.48276C13 8.24453 12.3825 8.86207 11.6207 8.86207H11.2759C10.5141 8.86207 9.89655 8.24453 9.89655 7.48276V7.43398C9.89655 7.23884 9.93796 7.04591 10.018 6.86796L11.4483 3.68966ZM4.55172 3.68966L5.98196 6.86796C6.06204 7.04591 6.10345 7.23884 6.10345 7.43398V7.48276C6.10345 8.24453 5.48591 8.86207 4.72414 8.86207H4.37931C3.61754 8.86207 3 8.24453 3 7.48276V7.43398C3 7.23884 3.04141 7.04591 3.12149 6.86796L4.55172 3.68966ZM10.2414 13V12.6552C10.2414 11.8934 9.62384 11.2759 8.86207 11.2759H7.13793C6.37616 11.2759 5.75862 11.8934 5.75862 12.6552V13H10.2414Z" stroke="black" stroke-width="1.1" stroke-linecap="round" stroke-linejoin="round"/>
</svg>
