<svg width="16" height="16" viewBox="0 0 16 16" fill="none" xmlns="http://www.w3.org/2000/svg">
<path fill-rule="evenodd" clip-rule="evenodd" d="M4.65075 3.31113C3.79747 2.88449 2.88824 3.78119 3.30299 4.64031L4.32142 6.74991H7.02831C7.71867 6.74991 8.27831 7.30956 8.27831 7.99991C8.27831 8.69027 7.71867 9.24991 7.02831 9.24991H4.32142L3.30299 11.3595C2.88824 12.2186 3.79747 13.1153 4.65075 12.6887L12.2395 8.89434C12.9765 8.52582 12.9765 7.47401 12.2395 7.10549L4.65075 3.31113Z" fill="black"/>
<path d="M3.30299 4.64031L3.88835 4.35772L3.88835 4.35772L3.30299 4.64031ZM4.65075 3.31113L4.36007 3.89251L4.36007 3.89251L4.65075 3.31113ZM4.32142 6.74991L3.73606 7.0325C3.84451 7.25715 4.07196 7.39991 4.32142 7.39991V6.74991ZM8.27831 7.99991L8.92831 7.99991V7.99991H8.27831ZM4.32142 9.24991V8.59991C4.07196 8.59991 3.84451 8.74268 3.73606 8.96733L4.32142 9.24991ZM3.30299 11.3595L2.71763 11.0769L2.71763 11.0769L3.30299 11.3595ZM4.65075 12.6887L4.94144 13.2701L4.94144 13.2701L4.65075 12.6887ZM12.2395 8.89434L11.9488 8.31296L11.9488 8.31296L12.2395 8.89434ZM12.2395 7.10549L12.5301 6.52411L12.5301 6.52411L12.2395 7.10549ZM3.88835 4.35772C3.74319 4.05703 4.06142 3.74319 4.36007 3.89251L4.94144 2.72976C3.53353 2.0258 2.0333 3.50535 2.71763 4.9229L3.88835 4.35772ZM4.90678 6.46733L3.88835 4.35772L2.71763 4.9229L3.73606 7.0325L4.90678 6.46733ZM4.32142 7.39991H7.02831V6.09991H4.32142V7.39991ZM7.02831 7.39991C7.35969 7.39991 7.62831 7.66854 7.62831 7.99991H8.92831C8.92831 6.95057 8.07766 6.09991 7.02831 6.09991V7.39991ZM7.62831 7.99991C7.62831 8.33128 7.35968 8.59991 7.02831 8.59991V9.89991C8.07766 9.89991 8.92831 9.04925 8.92831 7.99991L7.62831 7.99991ZM7.02831 8.59991H4.32142V9.89991H7.02831V8.59991ZM3.88835 11.6421L4.90678 9.5325L3.73606 8.96733L2.71763 11.0769L3.88835 11.6421ZM4.36007 12.1073C4.06142 12.2566 3.74319 11.9428 3.88835 11.6421L2.71763 11.0769C2.0333 12.4945 3.53353 13.974 4.94144 13.2701L4.36007 12.1073ZM11.9488 8.31296L4.36007 12.1073L4.94144 13.2701L12.5301 9.47572L11.9488 8.31296ZM11.9488 7.68686C12.2067 7.81585 12.2067 8.18398 11.9488 8.31296L12.5301 9.47572C13.7463 8.86765 13.7463 7.13217 12.5301 6.52411L11.9488 7.68686ZM4.36007 3.89251L11.9488 7.68686L12.5301 6.52411L4.94144 2.72976L4.36007 3.89251Z" fill="black"/>
</svg>
