<svg width="16" height="16" viewBox="0 0 16 16" fill="none" xmlns="http://www.w3.org/2000/svg">
<path d="M2.72097 10.4519L3.63198 10.5945C4.30448 10.6999 4.78475 11.3158 4.73522 12.0097L4.6681 12.9503C4.64856 13.2243 4.79453 13.4823 5.03629 13.6016L5.7101 13.9336C5.95186 14.0529 6.24054 14.0082 6.43799 13.8222L7.11506 13.1823C7.61422 12.7104 8.38447 12.7104 8.88429 13.1823L9.56136 13.8222C9.75881 14.0089 10.0468 14.0529 10.2893 13.9336L10.9644 13.6009C11.2055 13.4823 11.3508 13.225 11.3312 12.9517L11.2641 12.0097C11.2146 11.3158 11.6949 10.6999 12.3674 10.5945L13.2784 10.4519C13.5436 10.4106 13.7573 10.2072 13.8173 9.93927L13.9835 9.19401C14.0434 8.92603 13.9372 8.64806 13.7156 8.49341L12.9552 7.96079C12.3941 7.56749 12.2227 6.79956 12.5616 6.19628L13.021 5.37902C13.1546 5.14105 13.1324 4.84307 12.9649 4.62843L12.499 4.03048C12.3315 3.81583 12.0526 3.72718 11.7959 3.80784L10.9148 4.08381C10.2638 4.28779 9.56983 3.94582 9.31959 3.29855L8.98204 2.4233C8.88299 2.16732 8.64122 1.99934 8.37209 2L7.6253 2.002C7.35617 2.00267 7.11506 2.17199 7.01731 2.42863L6.68823 3.29388C6.4406 3.94516 5.74333 4.28979 5.09037 4.08448L4.17285 3.7965C3.91545 3.71518 3.63524 3.8045 3.46776 4.02048L3.00509 4.61909C2.83761 4.83574 2.81741 5.13438 2.95361 5.37236L3.42345 6.19162C3.76948 6.79556 3.60005 7.57082 3.03572 7.96612L2.28436 8.49274C2.0628 8.64806 1.95658 8.92603 2.01653 9.19334L2.1827 9.93861C2.24201 10.2072 2.45575 10.4106 2.72097 10.4519Z" fill="black" fill-opacity="0.1" stroke="black" stroke-width="1.2" stroke-linecap="round" stroke-linejoin="round"/>
<path d="M9.06071 6.93929C9.64643 7.525 9.64643 8.475 9.06071 9.06071C8.475 9.64643 7.525 9.64643 6.93929 9.06071C6.35357 8.475 6.35357 7.525 6.93929 6.93929C7.525 6.35357 8.475 6.35357 9.06071 6.93929Z" stroke="black" stroke-width="1.2" stroke-linecap="round" stroke-linejoin="round"/>
</svg>
