<svg width="16" height="16" viewBox="0 0 16 16" fill="none" xmlns="http://www.w3.org/2000/svg">
<path d="M3.1665 5.3335H4.83317" stroke="black" stroke-width="1.2" stroke-linecap="round" stroke-linejoin="round"/>
<path d="M8.5 5.3335H12.8333" stroke="black" stroke-width="1.2" stroke-linecap="round" stroke-linejoin="round"/>
<path d="M3.1665 10.6665H8.1665" stroke="black" stroke-width="1.2" stroke-linecap="round" stroke-linejoin="round"/>
<path d="M11.8335 10.6665H12.8335" stroke="black" stroke-width="1.2" stroke-linecap="round" stroke-linejoin="round"/>
<path d="M6.6665 6.8335C7.49493 6.8335 8.1665 6.16192 8.1665 5.3335C8.1665 4.50507 7.49493 3.8335 6.6665 3.8335C5.83808 3.8335 5.1665 4.50507 5.1665 5.3335C5.1665 6.16192 5.83808 6.8335 6.6665 6.8335Z" fill="black" fill-opacity="0.1" stroke="black" stroke-width="1.2" stroke-linecap="round" stroke-linejoin="round"/>
<path d="M10 12.1665C10.8284 12.1665 11.5 11.4949 11.5 10.6665C11.5 9.83808 10.8284 9.1665 10 9.1665C9.17157 9.1665 8.5 9.83808 8.5 10.6665C8.5 11.4949 9.17157 12.1665 10 12.1665Z" fill="black" fill-opacity="0.1" stroke="black" stroke-width="1.2" stroke-linecap="round" stroke-linejoin="round"/>
</svg>
