<svg width="16" height="16" viewBox="0 0 16 16" fill="none" xmlns="http://www.w3.org/2000/svg">
<path d="M9.6001 13.0001V10.6001C9.6001 10.0478 10.0478 9.6001 10.6001 9.6001H13.0001C13.5524 9.6001 14.0001 10.0478 14.0001 10.6001V13.0001C14.0001 13.5524 13.5524 14.0001 13.0001 14.0001H10.6001C10.0478 14.0001 9.6001 13.5524 9.6001 13.0001Z" stroke="black" stroke-width="1.3"/>
<path d="M2.3999 14.0356V9.53686C2.3999 9.38505 2.5624 9.28859 2.69567 9.36128L6.50231 11.4376C6.636 11.5106 6.6424 11.7002 6.51392 11.7819L2.70728 14.2043C2.57413 14.2891 2.3999 14.1934 2.3999 14.0356Z" stroke="black" stroke-width="1.3"/>
<circle cx="4.4001" cy="4.4001" r="2.15" stroke="black" stroke-width="1.3"/>
<path d="M9.2002 6.8001L14.4002 1.6001M9.2002 1.6001L14.4002 6.8001" stroke="black" stroke-width="1.3" stroke-linejoin="round"/>
</svg>
