<svg width="16" height="16" viewBox="0 0 16 16" fill="none" xmlns="http://www.w3.org/2000/svg">
<path d="M4 3H9C9.66304 3 10.2989 3.26339 10.7678 3.73223C11.2366 4.20107 11.5 4.83696 11.5 5.5C11.5 6.16304 11.2366 6.79893 10.7678 7.26777C10.2989 7.73661 9.66304 8 9 8H4V3Z" stroke="black" stroke-width="1.3" stroke-linecap="round" stroke-linejoin="round"/>
<path d="M4 8H9.625C10.288 8 10.9239 8.26339 11.3928 8.73223C11.8616 9.20107 12.125 9.83696 12.125 10.5C12.125 11.163 11.8616 11.7989 11.3928 12.2678C10.9239 12.7366 10.288 13 9.625 13H4V8Z" stroke="black" stroke-width="1.3" stroke-linecap="round" stroke-linejoin="round"/>
</svg>
