<svg width="16" height="16" viewBox="0 0 16 16" fill="none" xmlns="http://www.w3.org/2000/svg">
<path d="M14.5426 4.80005V11.3001C14.5426 12.6255 13.4681 13.7001 12.1426 13.7001H3.85694C2.53145 13.7001 1.45693 12.6255 1.45693 11.3001V4.80005C1.45693 3.47457 2.53145 2.40005 3.85693 2.40005H7.99979H12.1427C13.4681 2.40005 14.5426 3.47456 14.5426 4.80005Z" stroke="black" stroke-width="1.2"/>
<path d="M3.85693 2.40005H12.1426C13.4681 2.40005 14.5426 3.47457 14.5426 4.80005V5.96195H1.45693V4.80005C1.45693 3.47457 2.53145 2.40005 3.85693 2.40005Z" fill="black" fill-opacity="0.1" stroke="black" stroke-width="1.2"/>
<line x1="2.04785" y1="9.70005" x2="15.1431" y2="9.70005" stroke="black" stroke-width="1.2"/>
<line y1="-0.6" x2="8" y2="-0.6" transform="matrix(-4.37114e-08 1 1 4.37114e-08 8.6001 5.80005)" stroke="black" stroke-width="1.2"/>
</svg>
