<svg width="16" height="16" viewBox="0 0 16 16" fill="none" xmlns="http://www.w3.org/2000/svg">
<path d="M3.55927 10.2493H3.61185V10.474C3.63576 10.7753 3.82218 10.9522 4.11377 10.9522C4.44359 10.9522 4.63002 10.7418 4.63002 10.3784V7.48566C4.63002 6.38593 3.91778 5.77391 2.64149 5.77391C2.11568 5.77391 1.71415 5.86475 1.40822 6.0321C0.982792 6.26161 0.782027 6.5485 0.782027 6.84016C0.782027 7.06967 0.93499 7.22746 1.16922 7.22746C1.35086 7.22746 1.47514 7.17964 1.60421 7.05533C1.89579 6.75888 2.17304 6.61544 2.57457 6.61544C3.21989 6.61544 3.56883 6.91189 3.56883 7.48087V7.93033H2.30688C1.17878 7.93511 0.5 8.5041 0.5 9.43648C0.5 10.3545 1.16444 10.9761 2.14914 10.9761C2.77533 10.9761 3.28203 10.7179 3.55927 10.2493ZM1.56597 9.38388C1.56597 8.92008 1.89101 8.6571 2.45507 8.6571H3.56883V9.20219C3.56883 9.74727 3.0956 10.168 2.47897 10.168C1.93403 10.168 1.56597 9.85246 1.56597 9.38388Z" fill="black"/>
<path d="M8.49713 10.9761C9.69216 10.9761 10.4283 10.1393 10.4283 8.76708V7.97814C10.4283 6.61544 9.69694 5.77391 8.52103 5.77391C7.79924 5.77391 7.2065 6.12295 7.04398 6.64413H6.9914V4.58811C6.9914 4.21516 6.79541 4 6.4608 4C6.1262 4 5.93021 4.21516 5.93021 4.58811V10.3641C5.93021 10.7418 6.11663 10.9522 6.44646 10.9522C6.76673 10.9522 6.96272 10.7609 6.96272 10.4167V10.1441H7.0153C7.23518 10.6653 7.78968 10.9761 8.49713 10.9761ZM6.9914 8.7862V8.04986C6.9914 7.18921 7.45029 6.64891 8.18164 6.64891C8.91778 6.64891 9.34321 7.20833 9.34321 8.15505V8.6332C9.34321 9.56557 8.92734 10.1011 8.20077 10.1011C7.48853 10.1011 6.9914 9.56079 6.9914 8.7862Z" fill="black"/>
<path d="M11.4034 8.75751C11.4034 10.1441 12.2208 11 13.6023 11C14.0325 11 14.4818 10.9187 14.8738 10.6844C15.2419 10.4645 15.5 10.1441 15.5 9.81899C15.5 9.52254 15.3088 9.36954 15.0746 9.36954C14.8499 9.36954 14.7208 9.52732 14.6109 9.64208C14.3432 9.98156 14.0086 10.1107 13.6453 10.1107C12.8423 10.1107 12.4933 9.52254 12.4933 8.70014V8.03074C12.4933 7.21311 12.8709 6.64891 13.6358 6.64891C14.0421 6.64891 14.348 6.80669 14.5822 7.10792C14.6969 7.23702 14.8164 7.38525 15.0507 7.38525C15.3279 7.38525 15.4857 7.18443 15.4857 6.92623C15.4857 6.60109 15.2132 6.2903 14.8977 6.08948C14.5105 5.85041 14.0325 5.75478 13.5975 5.75478C12.2017 5.75478 11.4034 6.64891 11.4034 7.97336V8.75751Z" fill="black"/>
</svg>
