<svg width="16" height="16" viewBox="0 0 16 16" fill="none" xmlns="http://www.w3.org/2000/svg">
<path d="M6.90326 9.50002L6.90326 11.5C6.90326 11.8978 7.06384 12.2794 7.34968 12.5607C7.63552 12.842 8.02321 13 8.42744 13L10.4597 8.50003L10.4597 3.00006L4.72876 3.00006C4.4837 2.99734 4.24591 3.08186 4.05918 3.23806C3.87245 3.39426 3.74938 3.61161 3.71263 3.85006L3.01151 8.35003C2.9894 8.49335 2.99922 8.63969 3.04029 8.7789C3.08136 8.91811 3.1527 9.04688 3.24935 9.15627C3.34601 9.26566 3.46567 9.35306 3.60006 9.41241C3.73445 9.47177 3.88034 9.50166 4.02763 9.50002L6.90326 9.50002ZM10.4597 3.00006L11.9839 3.00006C12.2534 3.00006 12.5118 3.10542 12.7024 3.29296C12.8929 3.48049 13 3.73484 13 4.00006L13 7.50004C13 7.76525 12.8929 8.0196 12.7024 8.20714C12.5118 8.39467 12.2534 8.50003 11.9839 8.50003L10.4597 8.50003" fill="black" fill-opacity="0.1"/>
<path d="M10.4597 3.00006L11.9839 3.00006C12.2534 3.00006 12.5118 3.10542 12.7024 3.29296C12.8929 3.48049 13 3.73484 13 4.00006L13 7.50004C13 7.76525 12.8929 8.0196 12.7024 8.20714C12.5118 8.39467 12.2534 8.50003 11.9839 8.50003L10.4597 8.50003M6.90326 9.50002L6.90326 11.5C6.90326 11.8978 7.06384 12.2794 7.34968 12.5607C7.63552 12.842 8.02321 13 8.42744 13L10.4597 8.50003L10.4597 3.00006L4.72876 3.00006C4.4837 2.99734 4.24591 3.08186 4.05918 3.23806C3.87245 3.39426 3.74938 3.61161 3.71263 3.85006L3.01151 8.35003C2.9894 8.49335 2.99922 8.63969 3.04029 8.7789C3.08136 8.91811 3.1527 9.04688 3.24935 9.15627C3.34601 9.26566 3.46567 9.35306 3.60006 9.41241C3.73445 9.47177 3.88034 9.50166 4.02763 9.50002L6.90326 9.50002Z" stroke="black" stroke-width="1.2" stroke-linecap="round" stroke-linejoin="round"/>
</svg>
