<svg width="16" height="16" viewBox="0 0 16 16" fill="none" xmlns="http://www.w3.org/2000/svg">
<path d="M9 13H10.1765C11.7359 13 13 11.7359 13 10.1765V9" stroke="black" stroke-width="1.2" stroke-linecap="round" stroke-linejoin="round"/>
<path d="M8.7998 12L7.7998 13L8.7998 14" stroke="black" stroke-linecap="round" stroke-linejoin="round"/>
<path d="M14 8.7002L13 7.7002L12 8.7002" stroke="black" stroke-linecap="round" stroke-linejoin="round"/>
<path d="M7.41379 4.5H12.5862C12.8147 4.5 13 4.2965 13 4.04547V2.45452C13 2.2035 12.8147 2 12.5862 2H7.41379C7.18526 2 7 2.2035 7 2.45453V4.04548C7 4.2965 7.18526 4.5 7.41379 4.5Z" stroke="black" stroke-width="1.2" stroke-linecap="round" stroke-linejoin="round"/>
<path d="M2 7.41379L2 12.5862C2 12.8147 2.2035 13 2.45453 13L4.04547 13C4.2965 13 4.5 12.8147 4.5 12.5862L4.5 7.41379C4.5 7.18526 4.2965 7 4.04547 7L2.45452 7C2.2035 7 2 7.18526 2 7.41379Z" stroke="black" stroke-width="1.2" stroke-linecap="round" stroke-linejoin="round"/>
</svg>
