<svg width="16" height="16" viewBox="0 0 16 16" fill="none" xmlns="http://www.w3.org/2000/svg">
<path d="M3.50049 4.35889L4.2214 12.6494C4.29842 13.5351 5.03994 14.215 5.92905 14.215H10.071C10.9601 14.215 11.7016 13.5351 11.7786 12.6494L12.4995 4.35889" fill="black" fill-opacity="0.1"/>
<path d="M3.50049 4.35889L4.2214 12.6494C4.29842 13.5351 5.03994 14.215 5.92905 14.215H10.071C10.9601 14.215 11.7016 13.5351 11.7786 12.6494L12.4995 4.35889" stroke="black" stroke-width="1.28557" stroke-linecap="round" stroke-linejoin="round"/>
<path d="M6.07129 4.14448V3.5017C6.07129 2.55503 6.83869 1.7876 7.78539 1.7876H8.21391C9.16061 1.7876 9.92801 2.55503 9.92801 3.5017V4.14448" stroke="black" stroke-width="1.28557" stroke-linecap="round" stroke-linejoin="round"/>
<path d="M2.00146 4.35889H14.0002" stroke="black" stroke-width="1.28557" stroke-linecap="round" stroke-linejoin="round"/>
</svg>
