<svg width="16" height="16" viewBox="0 0 16 16" fill="none" xmlns="http://www.w3.org/2000/svg">
<path d="M11 11.5H11.7998H12.3C12.8523 11.5 13.3057 11.0519 13.2885 10.4999C13.2211 8.33279 12.7672 7 9.8 7C9.27612 7 8.7 7.2 8.5 7.3" stroke="black" stroke-width="1.2" stroke-linecap="round" stroke-linejoin="round"/>
<path d="M10.0485 7C11.2911 7 12.2985 5.99264 12.2985 4.75C12.2985 3.50736 11.2911 2.5 10.0485 2.5C9.01301 2.5 8.14091 3.19948 7.87891 4.15171" stroke="black" stroke-width="1.2" stroke-linecap="round" stroke-linejoin="round"/>
<path d="M8.79883 6C8.79883 7.24264 7.79147 8.25 6.54883 8.25C5.30619 8.25 4.29883 7.24264 4.29883 6C4.29883 4.75736 5.30619 3.75 6.54883 3.75C7.79147 3.75 8.79883 4.75736 8.79883 6Z" fill="black" fill-opacity="0.1" stroke="black" stroke-width="1.2" stroke-linecap="round" stroke-linejoin="round"/>
<path d="M6.54883 8.75C3.58108 8.75 2.55617 10.0833 2.34354 12.2512C2.28962 12.8008 2.74654 13.25 3.29883 13.25H4.29883H5.84961C6.54883 13.25 5.44426 13.25 6.54883 13.25H6.84961C7.95418 13.25 5.97602 13.25 7.34961 13.25H8.79883H9.79883C10.3511 13.25 10.808 12.8008 10.7541 12.2512C10.5415 10.0833 9.51658 8.75 6.54883 8.75Z" fill="black" fill-opacity="0.1" stroke="black" stroke-width="1.2" stroke-linecap="round" stroke-linejoin="round"/>
</svg>
