<svg width="16" height="16" viewBox="0 0 16 16" fill="none" xmlns="http://www.w3.org/2000/svg">
<path d="M8 14C11.3137 14 14 11.3137 14 8C14 4.68629 11.3137 2 8 2C4.68629 2 2 4.68629 2 8C2 11.3137 4.68629 14 8 14Z" stroke="black" stroke-width="1.2" stroke-linecap="round" stroke-linejoin="round"/>
<path fill-rule="evenodd" clip-rule="evenodd" d="M7.99977 4.51611C8.457 4.51611 8.82766 4.88677 8.82766 5.34401V6.99979C8.82766 7.45703 8.457 7.82769 7.99977 7.82769C7.54254 7.82769 7.17188 7.45703 7.17188 6.99979V5.34401C7.17188 4.88677 7.54254 4.51611 7.99977 4.51611Z" fill="black"/>
<path fill-rule="evenodd" clip-rule="evenodd" d="M8.82766 10.3113C8.82766 10.7685 8.457 11.1392 7.99977 11.1392C7.54254 11.1392 7.17188 10.7685 7.17188 10.3113C7.17188 9.85406 7.54254 9.4834 7.99977 9.4834C8.457 9.4834 8.82766 9.85406 8.82766 10.3113Z" fill="black"/>
</svg>
