<svg width="16" height="16" viewBox="0 0 16 16" fill="none" xmlns="http://www.w3.org/2000/svg">
<path d="M2.16507 11.6041L6.52228 2.91366C7.13318 1.69519 8.87242 1.69552 9.48291 2.9142L13.8361 11.6047C14.3876 12.7056 13.5871 14.002 12.3557 14.002H3.64524C2.41356 14.002 1.61303 12.7051 2.16507 11.6041Z" stroke="black" stroke-width="1.2" stroke-linecap="round" stroke-linejoin="round"/>
<path fill-rule="evenodd" clip-rule="evenodd" d="M7.99977 5.51611C8.457 5.51611 8.82766 5.88677 8.82766 6.34401V7.99979C8.82766 8.45703 8.457 8.82769 7.99977 8.82769C7.54254 8.82769 7.17188 8.45703 7.17188 7.99979V6.34401C7.17188 5.88677 7.54254 5.51611 7.99977 5.51611Z" fill="black"/>
<path fill-rule="evenodd" clip-rule="evenodd" d="M8.82766 11.3113C8.82766 11.7685 8.457 12.1392 7.99977 12.1392C7.54254 12.1392 7.17188 11.7685 7.17188 11.3113C7.17188 10.8541 7.54254 10.4834 7.99977 10.4834C8.457 10.4834 8.82766 10.8541 8.82766 11.3113Z" fill="black"/>
</svg>
