<svg width="16" height="16" viewBox="0 0 16 16" fill="none" xmlns="http://www.w3.org/2000/svg">
<path d="M6.25 2.75L3.625 4.9375L4.5 7.125H5.375L6.25 6.25L8 5.8125L8.875 5.375L9.75 4.0625V3.1875L6.25 2.75Z" fill="black" fill-opacity="0.1"/>
<path d="M10.625 8.875L11.9375 9.75L12.8125 10.1875L12.375 11.0625L11.5 11.9375L10.625 12.8125L8.4375 13.25V12.375L8 11.5L7.125 10.625L7.5625 9.3125L8 8.4375H9.3125L10.625 8.875Z" fill="black" fill-opacity="0.1"/>
<path d="M8 13.25C10.8995 13.25 13.25 10.8995 13.25 8C13.25 5.10051 10.8995 2.75 8 2.75C5.10051 2.75 2.75 5.10051 2.75 8C2.75 10.8995 5.10051 13.25 8 13.25Z" stroke="black" stroke-linecap="round" stroke-linejoin="round"/>
<path d="M12.7143 10.3189L9.74474 8.49232C9.69363 8.45945 9.63561 8.43887 9.57521 8.43216L8.32287 8.26263C8.22943 8.24922 8.13419 8.26717 8.05205 8.31368C7.96991 8.36019 7.90552 8.43264 7.86896 8.51966L7.11974 10.1986C7.08452 10.2767 7.073 10.3634 7.08661 10.448C7.10022 10.5325 7.13836 10.6113 7.1963 10.6744L8.22443 11.7845C8.27091 11.8356 8.30496 11.8967 8.32393 11.9631C8.3429 12.0295 8.34628 12.0994 8.3338 12.1673L8.12052 13.2501" stroke="black" stroke-linecap="round" stroke-linejoin="round"/>
<path d="M4.55463 4.04077L4.06244 5.20015C4.01957 5.30307 4.01761 5.41848 4.05697 5.5228L4.68588 7.19624C4.71046 7.26599 4.75253 7.32826 4.80807 7.3771C4.8636 7.42593 4.93075 7.45969 5.00307 7.47515L6.17338 7.72671C6.23834 7.73985 6.29934 7.76794 6.35155 7.80876C6.40376 7.84958 6.44574 7.902 6.47416 7.96187L6.68197 8.3939C6.7189 8.46694 6.77511 8.52849 6.84452 8.57187C6.91392 8.61525 6.99388 8.63881 7.07572 8.63999H7.814" stroke="black" stroke-linecap="round" stroke-linejoin="round"/>
<path d="M9.33975 2.91968L9.84834 3.83843C9.8953 3.9248 9.91219 4.02435 9.89634 4.12138C9.8805 4.21841 9.83283 4.30741 9.76084 4.37437L8.28975 5.70327C8.26512 5.72679 8.23755 5.74701 8.20772 5.76343L7.53506 6.1353C7.47094 6.16932 7.39981 6.18804 7.32725 6.18999H6.15693C6.07072 6.19043 5.98651 6.21602 5.91462 6.26361C5.84274 6.31121 5.78631 6.37876 5.75225 6.45796L5.29834 7.5353" stroke="black" stroke-linecap="round" stroke-linejoin="round"/>
</svg>
