<svg width="16" height="16" viewBox="0 0 16 16" fill="none" xmlns="http://www.w3.org/2000/svg">
  <rect x="2" y="2" width="12" height="12" rx="3" fill="black" fill-opacity="0.1"/>
  <path d="M2 11V5C2 3.34315 3.34315 2 5 2H11C12.6569 2 14 3.34315 14 5V11C14 12.6569 12.6569 14 11 14H5C3.34315 14 2 12.6569 2 11Z" stroke="black" stroke-width="1.2"/>
  <path d="M8.00454 11.3787C6.40744 11.3787 5.5 10.1264 5.5 8.02118C5.5 5.94315 6.47096 4.69995 8.00454 4.69995C9.52904 4.69995 10.5 5.93407 10.5 8.07563C10.5 10.1264 9.58348 11.3787 8.00454 11.3787ZM6.66152 8.11193C6.66152 9.66365 7.20599 10.4078 8.01361 10.4078C8.82123 10.4078 9.34755 9.65458 9.34755 8.09378C9.34755 6.42409 8.82123 5.67091 8.01361 5.67091C7.17877 5.67091 6.66152 6.42409 6.66152 8.11193Z" fill="black"/>
  </svg>
